<?xml version="1.0" encoding="UTF-8" standalone="no"?>
<svg
   xmlns:dc="http://purl.org/dc/elements/1.1/"
   xmlns:cc="http://creativecommons.org/ns#"
   xmlns:rdf="http://www.w3.org/1999/02/22-rdf-syntax-ns#"
   xmlns:svg="http://www.w3.org/2000/svg"
   xmlns="http://www.w3.org/2000/svg"
   xmlns:sodipodi="http://sodipodi.sourceforge.net/DTD/sodipodi-0.dtd"
   xmlns:inkscape="http://www.inkscape.org/namespaces/inkscape"
   sodipodi:docname="h_2.svg"
   inkscape:version="1.0.2-2 (e86c870879, 2021-01-15)"
   id="svg8"
   version="1.1"
   viewBox="0 0 64 89"
   height="89mm"
   width="64mm">
  <defs
     id="defs2">
    <rect
       id="rect19"
       height="17.639789"
       width="26.459683"
       y="5.7462948"
       x="2.9399648" />
    <rect
       x="2.9399648"
       y="5.7462948"
       width="26.459683"
       height="17.639789"
       id="rect63" />
    <rect
       id="rect83"
       height="17.639789"
       width="26.459683"
       y="5.7462948"
       x="2.9399648" />
    <rect
       x="2.9399648"
       y="5.7462948"
       width="26.459683"
       height="17.639789"
       id="rect103" />
    <rect
       id="rect123"
       height="17.639789"
       width="26.459683"
       y="5.7462948"
       x="2.9399648" />
    <rect
       x="2.9399648"
       y="5.7462948"
       width="26.459683"
       height="17.639789"
       id="rect143" />
    <rect
       id="rect163"
       height="17.639789"
       width="26.459683"
       y="5.7462948"
       x="2.9399648" />
    <rect
       x="2.9399648"
       y="5.7462948"
       width="26.459683"
       height="17.639789"
       id="rect183" />
    <rect
       id="rect203"
       height="17.639789"
       width="26.459683"
       y="5.7462948"
       x="2.9399648" />
    <rect
       x="2.9399648"
       y="5.7462948"
       width="26.459683"
       height="17.639789"
       id="rect223" />
    <rect
       x="2.9399648"
       y="5.7462948"
       width="26.459683"
       height="17.639789"
       id="rect239" />
    <rect
       id="rect255"
       height="17.639789"
       width="26.459683"
       y="5.7462948"
       x="2.9399648" />
    <rect
       x="2.9399648"
       y="5.7462948"
       width="26.459683"
       height="17.639789"
       id="rect271" />
    <rect
       id="rect287"
       height="17.639789"
       width="26.459683"
       y="5.7462948"
       x="2.9399648" />
  </defs>
  <sodipodi:namedview
     inkscape:window-maximized="1"
     inkscape:window-y="-8"
     inkscape:window-x="1912"
     inkscape:window-height="1027"
     inkscape:window-width="1920"
     borderlayer="false"
     lock-margins="true"
     showgrid="false"
     inkscape:document-rotation="0"
     inkscape:current-layer="layer5"
     inkscape:document-units="mm"
     inkscape:cy="190.469"
     inkscape:cx="130.049"
     inkscape:zoom="1.4"
     inkscape:pageshadow="2"
     inkscape:pageopacity="0.0"
     borderopacity="1.0"
     bordercolor="#666666"
     pagecolor="#ffffff"
     id="base"
     inkscape:snap-nodes="false" />
  <metadata
     id="metadata5">
    <rdf:RDF>
      <cc:Work
         rdf:about="">
        <dc:format>image/svg+xml</dc:format>
        <dc:type
           rdf:resource="http://purl.org/dc/dcmitype/StillImage" />
        <dc:title />
      </cc:Work>
    </rdf:RDF>
  </metadata>
  <g
     style="display:inline"
     inkscape:label="Letter"
     id="layer3"
     inkscape:groupmode="layer"
     sodipodi:insensitive="true">
    <g
       style="display:inline"
       inkscape:label="Base Colour (ALWAYS)"
       id="layer5"
       inkscape:groupmode="layer"
       sodipodi:insensitive="true">
      <rect
         style="display:inline;mix-blend-mode:multiply;fill:#ffffff;stroke:#ffffff;stroke-width:0.258351"
         id="rect418-4"
         width="62.3742"
         height="87.0686"
         x="1.11929"
         y="0.968945" />
    </g>
    <g
       style="display:inline"
       inkscape:groupmode="layer"
       id="g61"
       inkscape:label="Two"
       sodipodi:insensitive="true">
      <text
         xml:space="preserve"
         id="text51"
         style="font-size:16.9333px;line-height:1.25;font-family:sans-serif;word-spacing:0px;white-space:pre;shape-inside:url(#rect63);fill:#000000;" />
      <g
         aria-label="2"
         id="text55"
         style="font-size:16.9333px;line-height:1.25;font-family:sans-serif;word-spacing:0px;stroke-width:0.264583">
        <path
           d="m 7.01805,12.8027 h 5.82905 v 1.4056 H 5.00887 V 12.8027 Q 5.95972,11.8188 7.59682,10.1651 9.2422,8.50323 9.66388,8.02368 10.4659,7.12244 10.7801,6.50233 11.1025,5.87394 11.1025,5.27036 11.1025,4.28644 10.408,3.66633 9.72175,3.04621 8.61381,3.04621 7.82833,3.04621 6.9519,3.31906 6.08374,3.59191 5.09155,4.14588 V 2.45917 q 1.00873,-0.40514 1.88516,-0.61185 0.87643,-0.2067 1.60403,-0.2067 1.91826,0 3.05926,0.95911 1.141,0.95911 1.141,2.56314 0,0.76068 -0.2894,1.44694 -0.2811,0.678 -1.0335,1.60404 -0.2067,0.23977 -1.3147,1.38906 -1.10791,1.14099 -3.12535,3.19979 z"
           style="stroke-width:0.264583"
           id="path196" />
      </g>
      <g
         aria-label="2"
         transform="scale(-1)"
         id="text59"
         style="font-size:16.9333px;line-height:1.25;font-family:sans-serif;word-spacing:0px;stroke-width:0.264583">
        <path
           d="m -57.1559,-76.1203 h 5.8291 v 1.4056 h -7.8383 v -1.4056 q 0.9509,-0.9839 2.588,-2.6376 1.6454,-1.6619 2.067,-2.1414 0.8021,-0.9013 1.1162,-1.5214 0.3225,-0.6284 0.3225,-1.2319 0,-0.984 -0.6945,-1.6041 -0.6863,-0.6201 -1.7942,-0.6201 -0.7855,0 -1.6619,0.2729 -0.8682,0.2728 -1.8604,0.8268 v -1.6867 q 1.0087,-0.4052 1.8852,-0.6119 0.8764,-0.2067 1.604,-0.2067 1.9182,0 3.0592,0.9591 1.1411,0.9591 1.1411,2.5632 0,0.7607 -0.2894,1.4469 -0.2812,0.678 -1.0336,1.604 -0.2067,0.2398 -1.3146,1.3891 -1.1079,1.141 -3.1254,3.1998 z"
           style="stroke-width:0.264583"
           id="path199" />
      </g>
    </g>
    <g
       style="display:inline"
       inkscape:label="Hearts (RED)"
       id="g550"
       inkscape:groupmode="layer"
       sodipodi:insensitive="true">
      <g
         style="display:inline"
         inkscape:label="Hearts Inner"
         id="g540"
         inkscape:groupmode="layer"
         sodipodi:insensitive="true">
        <g
           aria-label="♥"
           id="text538"
           style="font-size:25.4px;line-height:1.25;font-family:sans-serif;word-spacing:0px;display:inline;stroke-width:0.264583"
           transform="translate(0.0289)">
          <path
             d="m 27.8728,34.9108 q 2.5177,0 3.9563,2.9146 0.5209,1.1534 0.5457,1.7611 h 0.037 q 0.434,-2.0092 1.575,-3.3362 1.3395,-1.3395 3.0138,-1.3395 2.5921,0 4.1548,2.7781 0.3969,1.0294 0.3969,1.9348 0,3.1006 -2.5797,5.9159 l -6.5608,7.8755 h -0.075 l -6.9701,-8.5452 q -2.0836,-2.5425 -2.0836,-5.2462 0,-2.6169 2.4681,-4.1548 1.0418,-0.5581 2.1208,-0.5581 z"
             style="font-size:25.4px;stroke-width:0.264583"
             id="path257" />
        </g>
      </g>
      <g
         aria-label="♥"
         id="text544"
         style="font-size:16.9333px;line-height:1.25;font-family:sans-serif;word-spacing:0px;stroke-width:0.264583">
        <path
           d="m 6.31614,16.3144 q 1.67845,0 2.63756,1.9431 0.34727,0.7689 0.3638,1.174 h 0.0248 q 0.28939,-1.3394 1.0501,-2.2241 0.8929,-0.893 2.0091,-0.893 1.7281,0 2.7699,1.8521 0.2646,0.6863 0.2646,1.2898 0,2.0671 -1.7198,3.944 L 9.34231,28.6506 H 9.2927 L 4.64596,22.9538 Q 3.2569,21.2588 3.2569,19.4563 q 0,-1.7445 1.64538,-2.7698 0.69453,-0.3721 1.41386,-0.3721 z"
           style="stroke-width:0.264583"
           id="path260" />
      </g>
      <g
         aria-label="♥"
         transform="rotate(180,-0.264583,0)"
         id="text548"
         style="font-size:16.9333px;line-height:1.25;font-family:sans-serif;word-spacing:0px;stroke-width:0.264583">
        <path
           d="m -58.9247,-73.2967 q 1.6784,0 2.6375,1.9431 0.3473,0.7689 0.3638,1.174 h 0.025 q 0.2894,-1.3394 1.0501,-2.2241 0.8929,-0.893 2.0092,-0.893 1.728,0 2.7698,1.8521 0.2646,0.6863 0.2646,1.2898 0,2.0671 -1.7198,3.944 l -4.3739,5.2503 h -0.05 l -4.6467,-5.6968 q -1.3891,-1.695 -1.3891,-3.4975 0,-1.7445 1.6454,-2.7698 0.6945,-0.3721 1.4139,-0.3721 z"
           style="stroke-width:0.264583"
           id="path263" />
      </g>
    </g>
    <g
       style="display:inline;mix-blend-mode:screen"
       inkscape:label="Colour Red"
       id="layer4"
       inkscape:groupmode="layer"
       sodipodi:insensitive="true">
      <rect
         y="1.1693"
         x="1.16931"
         height="86.294"
         width="61.9287"
         id="rect418"
         style="fill:#ff0000;stroke:none;stroke-width:0.25628" />
    </g>
  </g>
</svg>
