<?xml version="1.0" encoding="UTF-8" standalone="no"?>
<svg
   xmlns:dc="http://purl.org/dc/elements/1.1/"
   xmlns:cc="http://creativecommons.org/ns#"
   xmlns:rdf="http://www.w3.org/1999/02/22-rdf-syntax-ns#"
   xmlns:svg="http://www.w3.org/2000/svg"
   xmlns="http://www.w3.org/2000/svg"
   xmlns:sodipodi="http://sodipodi.sourceforge.net/DTD/sodipodi-0.dtd"
   xmlns:inkscape="http://www.inkscape.org/namespaces/inkscape"
   sodipodi:docname="h_5.svg"
   inkscape:version="1.0.2-2 (e86c870879, 2021-01-15)"
   id="svg8"
   version="1.1"
   viewBox="0 0 64 89"
   height="89mm"
   width="64mm">
  <defs
     id="defs2">
    <rect
       id="rect19"
       height="17.639789"
       width="26.459683"
       y="5.7462948"
       x="2.9399648" />
    <rect
       x="2.9399648"
       y="5.7462948"
       width="26.459683"
       height="17.639789"
       id="rect63" />
    <rect
       id="rect83"
       height="17.639789"
       width="26.459683"
       y="5.7462948"
       x="2.9399648" />
    <rect
       x="2.9399648"
       y="5.7462948"
       width="26.459683"
       height="17.639789"
       id="rect103" />
    <rect
       id="rect123"
       height="17.639789"
       width="26.459683"
       y="5.7462948"
       x="2.9399648" />
    <rect
       x="2.9399648"
       y="5.7462948"
       width="26.459683"
       height="17.639789"
       id="rect143" />
    <rect
       id="rect163"
       height="17.639789"
       width="26.459683"
       y="5.7462948"
       x="2.9399648" />
    <rect
       x="2.9399648"
       y="5.7462948"
       width="26.459683"
       height="17.639789"
       id="rect183" />
    <rect
       id="rect203"
       height="17.639789"
       width="26.459683"
       y="5.7462948"
       x="2.9399648" />
    <rect
       x="2.9399648"
       y="5.7462948"
       width="26.459683"
       height="17.639789"
       id="rect223" />
    <rect
       x="2.9399648"
       y="5.7462948"
       width="26.459683"
       height="17.639789"
       id="rect239" />
    <rect
       id="rect255"
       height="17.639789"
       width="26.459683"
       y="5.7462948"
       x="2.9399648" />
    <rect
       x="2.9399648"
       y="5.7462948"
       width="26.459683"
       height="17.639789"
       id="rect271" />
    <rect
       id="rect287"
       height="17.639789"
       width="26.459683"
       y="5.7462948"
       x="2.9399648" />
  </defs>
  <sodipodi:namedview
     inkscape:window-maximized="1"
     inkscape:window-y="-8"
     inkscape:window-x="1912"
     inkscape:window-height="1027"
     inkscape:window-width="1920"
     borderlayer="false"
     lock-margins="true"
     showgrid="false"
     inkscape:document-rotation="0"
     inkscape:current-layer="layer5"
     inkscape:document-units="mm"
     inkscape:cy="190.469"
     inkscape:cx="130.049"
     inkscape:zoom="1.4"
     inkscape:pageshadow="2"
     inkscape:pageopacity="0.0"
     borderopacity="1.0"
     bordercolor="#666666"
     pagecolor="#ffffff"
     id="base"
     inkscape:snap-nodes="false" />
  <metadata
     id="metadata5">
    <rdf:RDF>
      <cc:Work
         rdf:about="">
        <dc:format>image/svg+xml</dc:format>
        <dc:type
           rdf:resource="http://purl.org/dc/dcmitype/StillImage" />
        <dc:title />
      </cc:Work>
    </rdf:RDF>
  </metadata>
  <g
     style="display:inline"
     inkscape:label="Letter"
     id="layer3"
     inkscape:groupmode="layer">
    <g
       style="display:inline"
       inkscape:label="Base Colour (ALWAYS)"
       id="layer5"
       inkscape:groupmode="layer"
       sodipodi:insensitive="true">
      <rect
         style="display:inline;mix-blend-mode:multiply;fill:#ffffff;stroke:#ffffff;stroke-width:0.258351"
         id="rect418-4"
         width="62.3742"
         height="87.0686"
         x="1.11929"
         y="0.968945" />
    </g>
    <g
       inkscape:label="Five"
       id="g121"
       inkscape:groupmode="layer"
       style="display:inline"
       sodipodi:insensitive="true">
      <text
         style="font-size:16.9333px;line-height:1.25;font-family:sans-serif;word-spacing:0px;white-space:pre;shape-inside:url(#rect123);fill:#000000;"
         id="text111"
         xml:space="preserve" />
      <g
         aria-label="5"
         id="text115"
         style="font-size:16.9333px;line-height:1.25;font-family:sans-serif;word-spacing:0px;stroke-width:0.264583"
         transform="translate(0.75815)">
        <path
           d="M 5.06675,1.86386 H 11.6234 V 3.26945 H 6.59636 v 3.02617 q 0.36381,-0.12402 0.72761,-0.1819 0.3638,-0.0661 0.7276,-0.0661 2.06703,0 3.27423,1.13275 1.2071,1.13274 1.2071,3.06743 0,1.9927 -1.2402,3.1006 -1.2402,1.0997 -3.49744,1.0997 -0.77722,0 -1.5875,-0.1323 -0.80202,-0.1323 -1.66191,-0.3969 v -1.6784 q 0.74414,0.4051 1.53789,0.6035 0.79374,0.1985 1.67844,0.1985 1.4304,0 2.26552,-0.7524 0.8351,-0.7524 0.8351,-2.0423 0,-1.28977 -0.8351,-2.04217 Q 9.19258,7.45317 7.76218,7.45317 7.09246,7.45317 6.42273,7.602 5.76127,7.75083 5.06675,8.06502 Z"
           style="stroke-width:0.264583"
           id="path178" />
      </g>
      <g
         aria-label="5"
         transform="rotate(180,-0.1645,0)"
         id="text119"
         style="font-size:16.9333px;line-height:1.25;font-family:sans-serif;word-spacing:0px;stroke-width:0.264583">
        <path
           d="m -59.1072,-87.0591 h 6.5567 v 1.4056 h -5.0271 v 3.0261 q 0.3638,-0.124 0.7276,-0.1819 0.3638,-0.066 0.7276,-0.066 2.0671,0 3.2742,1.1327 1.2072,1.1328 1.2072,3.0675 0,1.9927 -1.2403,3.1006 -1.2402,1.0997 -3.4974,1.0997 -0.7772,0 -1.5875,-0.1323 -0.802,-0.1323 -1.6619,-0.3969 v -1.6784 q 0.7441,0.4051 1.5379,0.6035 0.7937,0.1985 1.6784,0.1985 1.4304,0 2.2655,-0.7524 0.8351,-0.7524 0.8351,-2.0423 0,-1.2898 -0.8351,-2.0422 -0.8351,-0.7524 -2.2655,-0.7524 -0.6697,0 -1.3394,0.1488 -0.6615,0.1488 -1.356,0.463 z"
           style="stroke-width:0.264583"
           id="path181" />
      </g>
    </g>
    <g
       style="display:inline"
       inkscape:label="Hearts (RED)"
       id="g550"
       inkscape:groupmode="layer"
       sodipodi:insensitive="true">
      <g
         style="display:inline"
         inkscape:label="Hearts Inner"
         id="g540"
         inkscape:groupmode="layer"
         sodipodi:insensitive="true">
        <g
           aria-label="♥"
           id="text538"
           style="font-size:25.4px;line-height:1.25;font-family:sans-serif;word-spacing:0px;display:inline;stroke-width:0.264583"
           transform="translate(0.0289)">
          <path
             d="m 27.8728,34.9108 q 2.5177,0 3.9563,2.9146 0.5209,1.1534 0.5457,1.7611 h 0.037 q 0.434,-2.0092 1.575,-3.3362 1.3395,-1.3395 3.0138,-1.3395 2.5921,0 4.1548,2.7781 0.3969,1.0294 0.3969,1.9348 0,3.1006 -2.5797,5.9159 l -6.5608,7.8755 h -0.075 l -6.9701,-8.5452 q -2.0836,-2.5425 -2.0836,-5.2462 0,-2.6169 2.4681,-4.1548 1.0418,-0.5581 2.1208,-0.5581 z"
             style="font-size:25.4px;stroke-width:0.264583"
             id="path257" />
        </g>
      </g>
      <g
         aria-label="♥"
         id="text544"
         style="font-size:16.9333px;line-height:1.25;font-family:sans-serif;word-spacing:0px;stroke-width:0.264583">
        <path
           d="m 6.31614,16.3144 q 1.67845,0 2.63756,1.9431 0.34727,0.7689 0.3638,1.174 h 0.0248 q 0.28939,-1.3394 1.0501,-2.2241 0.8929,-0.893 2.0091,-0.893 1.7281,0 2.7699,1.8521 0.2646,0.6863 0.2646,1.2898 0,2.0671 -1.7198,3.944 L 9.34231,28.6506 H 9.2927 L 4.64596,22.9538 Q 3.2569,21.2588 3.2569,19.4563 q 0,-1.7445 1.64538,-2.7698 0.69453,-0.3721 1.41386,-0.3721 z"
           style="stroke-width:0.264583"
           id="path260" />
      </g>
      <g
         aria-label="♥"
         transform="rotate(180,-0.264583,0)"
         id="text548"
         style="font-size:16.9333px;line-height:1.25;font-family:sans-serif;word-spacing:0px;stroke-width:0.264583">
        <path
           d="m -58.9247,-73.2967 q 1.6784,0 2.6375,1.9431 0.3473,0.7689 0.3638,1.174 h 0.025 q 0.2894,-1.3394 1.0501,-2.2241 0.8929,-0.893 2.0092,-0.893 1.728,0 2.7698,1.8521 0.2646,0.6863 0.2646,1.2898 0,2.0671 -1.7198,3.944 l -4.3739,5.2503 h -0.05 l -4.6467,-5.6968 q -1.3891,-1.695 -1.3891,-3.4975 0,-1.7445 1.6454,-2.7698 0.6945,-0.3721 1.4139,-0.3721 z"
           style="stroke-width:0.264583"
           id="path263" />
      </g>
    </g>
    <g
       style="display:inline;mix-blend-mode:screen"
       inkscape:label="Colour Red"
       id="layer4"
       inkscape:groupmode="layer"
       sodipodi:insensitive="true">
      <rect
         y="1.1693"
         x="1.16931"
         height="86.294"
         width="61.9287"
         id="rect418"
         style="fill:#ff0000;stroke:none;stroke-width:0.25628" />
    </g>
  </g>
</svg>
