<?xml version="1.0" encoding="UTF-8" standalone="no"?>
<svg
   xmlns:dc="http://purl.org/dc/elements/1.1/"
   xmlns:cc="http://creativecommons.org/ns#"
   xmlns:rdf="http://www.w3.org/1999/02/22-rdf-syntax-ns#"
   xmlns:svg="http://www.w3.org/2000/svg"
   xmlns="http://www.w3.org/2000/svg"
   xmlns:sodipodi="http://sodipodi.sourceforge.net/DTD/sodipodi-0.dtd"
   xmlns:inkscape="http://www.inkscape.org/namespaces/inkscape"
   sodipodi:docname="h_6.svg"
   inkscape:version="1.0.2-2 (e86c870879, 2021-01-15)"
   id="svg8"
   version="1.1"
   viewBox="0 0 64 89"
   height="89mm"
   width="64mm">
  <defs
     id="defs2">
    <rect
       id="rect19"
       height="17.639789"
       width="26.459683"
       y="5.7462948"
       x="2.9399648" />
    <rect
       x="2.9399648"
       y="5.7462948"
       width="26.459683"
       height="17.639789"
       id="rect63" />
    <rect
       id="rect83"
       height="17.639789"
       width="26.459683"
       y="5.7462948"
       x="2.9399648" />
    <rect
       x="2.9399648"
       y="5.7462948"
       width="26.459683"
       height="17.639789"
       id="rect103" />
    <rect
       id="rect123"
       height="17.639789"
       width="26.459683"
       y="5.7462948"
       x="2.9399648" />
    <rect
       x="2.9399648"
       y="5.7462948"
       width="26.459683"
       height="17.639789"
       id="rect143" />
    <rect
       id="rect163"
       height="17.639789"
       width="26.459683"
       y="5.7462948"
       x="2.9399648" />
    <rect
       x="2.9399648"
       y="5.7462948"
       width="26.459683"
       height="17.639789"
       id="rect183" />
    <rect
       id="rect203"
       height="17.639789"
       width="26.459683"
       y="5.7462948"
       x="2.9399648" />
    <rect
       x="2.9399648"
       y="5.7462948"
       width="26.459683"
       height="17.639789"
       id="rect223" />
    <rect
       x="2.9399648"
       y="5.7462948"
       width="26.459683"
       height="17.639789"
       id="rect239" />
    <rect
       id="rect255"
       height="17.639789"
       width="26.459683"
       y="5.7462948"
       x="2.9399648" />
    <rect
       x="2.9399648"
       y="5.7462948"
       width="26.459683"
       height="17.639789"
       id="rect271" />
    <rect
       id="rect287"
       height="17.639789"
       width="26.459683"
       y="5.7462948"
       x="2.9399648" />
  </defs>
  <sodipodi:namedview
     inkscape:window-maximized="1"
     inkscape:window-y="-8"
     inkscape:window-x="1912"
     inkscape:window-height="1027"
     inkscape:window-width="1920"
     borderlayer="false"
     lock-margins="true"
     showgrid="false"
     inkscape:document-rotation="0"
     inkscape:current-layer="layer5"
     inkscape:document-units="mm"
     inkscape:cy="190.469"
     inkscape:cx="130.049"
     inkscape:zoom="1.4"
     inkscape:pageshadow="2"
     inkscape:pageopacity="0.0"
     borderopacity="1.0"
     bordercolor="#666666"
     pagecolor="#ffffff"
     id="base"
     inkscape:snap-nodes="false" />
  <metadata
     id="metadata5">
    <rdf:RDF>
      <cc:Work
         rdf:about="">
        <dc:format>image/svg+xml</dc:format>
        <dc:type
           rdf:resource="http://purl.org/dc/dcmitype/StillImage" />
        <dc:title />
      </cc:Work>
    </rdf:RDF>
  </metadata>
  <g
     style="display:inline"
     inkscape:label="Letter"
     id="layer3"
     inkscape:groupmode="layer">
    <g
       style="display:inline"
       inkscape:label="Base Colour (ALWAYS)"
       id="layer5"
       inkscape:groupmode="layer"
       sodipodi:insensitive="true">
      <rect
         style="display:inline;mix-blend-mode:multiply;fill:#ffffff;stroke:#ffffff;stroke-width:0.258351"
         id="rect418-4"
         width="62.3742"
         height="87.0686"
         x="1.11929"
         y="0.968945" />
    </g>
    <g
       style="display:inline"
       inkscape:groupmode="layer"
       id="g141"
       inkscape:label="Six"
       sodipodi:insensitive="true">
      <text
         xml:space="preserve"
         id="text131"
         style="font-size:16.9333px;line-height:1.25;font-family:sans-serif;word-spacing:0px;white-space:pre;shape-inside:url(#rect143);fill:#000000;" />
      <g
         aria-label="6"
         id="text135"
         style="font-size:16.9333px;line-height:1.25;font-family:sans-serif;word-spacing:0px;stroke-width:0.264583"
         transform="translate(1.38735)">
        <path
           d="m 8.29961,7.37049 q -1.12448,0 -1.78593,0.76894 -0.65319,0.76895 -0.65319,2.10837 0,1.3312 0.65319,2.1084 0.66145,0.769 1.78593,0.769 1.12448,0 1.77769,-0.769 0.6614,-0.7772 0.6614,-2.1084 0,-1.33942 -0.6614,-2.10837 Q 9.42409,7.37049 8.29961,7.37049 Z M 11.6152,2.13671 V 3.65806 Q 10.9868,3.3604 10.3419,3.20331 9.70521,3.04621 9.07682,3.04621 7.42318,3.04621 6.54675,4.16242 5.67859,5.27863 5.55457,7.53585 6.04239,6.81652 6.77826,6.43618 7.51413,6.04757 8.39883,6.04757 q 1.86037,0 2.93517,1.13275 1.0832,1.12448 1.0832,3.06748 0,1.9017 -1.1245,3.051 -1.1245,1.1493 -2.99309,1.1493 -2.14147,0 -3.27421,-1.6371 -1.13275,-1.6454 -1.13275,-4.76252 0,-2.92695 1.38906,-4.66327 1.38906,-1.74459 3.72897,-1.74459 0.62838,0 1.26502,0.12402 0.6449,0.12402 1.3395,0.37207 z"
           style="stroke-width:0.264583"
           id="path172" />
      </g>
      <g
         aria-label="6"
         transform="rotate(180,-0.31435,0)"
         id="text139"
         style="font-size:16.9333px;line-height:1.25;font-family:sans-serif;word-spacing:0px;stroke-width:0.264583">
        <path
           d="m -55.8743,-81.5525 q -1.1245,0 -1.7859,0.7689 -0.6532,0.769 -0.6532,2.1084 0,1.3312 0.6532,2.1084 0.6614,0.769 1.7859,0.769 1.1245,0 1.7777,-0.769 0.6614,-0.7772 0.6614,-2.1084 0,-1.3394 -0.6614,-2.1084 -0.6532,-0.7689 -1.7777,-0.7689 z m 3.3156,-5.2338 v 1.5214 q -0.6284,-0.2977 -1.2733,-0.4548 -0.6367,-0.1571 -1.2651,-0.1571 -1.6536,0 -2.53,1.1162 -0.8682,1.1162 -0.9922,3.3735 0.4878,-0.7194 1.2237,-1.0997 0.7358,-0.3886 1.6205,-0.3886 1.8604,0 2.9352,1.1327 1.0832,1.1245 1.0832,3.0675 0,1.9017 -1.1245,3.051 -1.1245,1.1493 -2.9931,1.1493 -2.1415,0 -3.2742,-1.6371 -1.1327,-1.6454 -1.1327,-4.7625 0,-2.927 1.389,-4.6633 1.3891,-1.7446 3.729,-1.7446 0.6284,0 1.265,0.124 0.6449,0.1241 1.3395,0.3721 z"
           style="stroke-width:0.264583"
           id="path175" />
      </g>
    </g>
    <g
       style="display:inline"
       inkscape:label="Hearts (RED)"
       id="g550"
       inkscape:groupmode="layer"
       sodipodi:insensitive="true">
      <g
         style="display:inline"
         inkscape:label="Hearts Inner"
         id="g540"
         inkscape:groupmode="layer"
         sodipodi:insensitive="true">
        <g
           aria-label="♥"
           id="text538"
           style="font-size:25.4px;line-height:1.25;font-family:sans-serif;word-spacing:0px;display:inline;stroke-width:0.264583"
           transform="translate(0.0289)">
          <path
             d="m 27.8728,34.9108 q 2.5177,0 3.9563,2.9146 0.5209,1.1534 0.5457,1.7611 h 0.037 q 0.434,-2.0092 1.575,-3.3362 1.3395,-1.3395 3.0138,-1.3395 2.5921,0 4.1548,2.7781 0.3969,1.0294 0.3969,1.9348 0,3.1006 -2.5797,5.9159 l -6.5608,7.8755 h -0.075 l -6.9701,-8.5452 q -2.0836,-2.5425 -2.0836,-5.2462 0,-2.6169 2.4681,-4.1548 1.0418,-0.5581 2.1208,-0.5581 z"
             style="font-size:25.4px;stroke-width:0.264583"
             id="path257" />
        </g>
      </g>
      <g
         aria-label="♥"
         id="text544"
         style="font-size:16.9333px;line-height:1.25;font-family:sans-serif;word-spacing:0px;stroke-width:0.264583">
        <path
           d="m 6.31614,16.3144 q 1.67845,0 2.63756,1.9431 0.34727,0.7689 0.3638,1.174 h 0.0248 q 0.28939,-1.3394 1.0501,-2.2241 0.8929,-0.893 2.0091,-0.893 1.7281,0 2.7699,1.8521 0.2646,0.6863 0.2646,1.2898 0,2.0671 -1.7198,3.944 L 9.34231,28.6506 H 9.2927 L 4.64596,22.9538 Q 3.2569,21.2588 3.2569,19.4563 q 0,-1.7445 1.64538,-2.7698 0.69453,-0.3721 1.41386,-0.3721 z"
           style="stroke-width:0.264583"
           id="path260" />
      </g>
      <g
         aria-label="♥"
         transform="rotate(180,-0.264583,0)"
         id="text548"
         style="font-size:16.9333px;line-height:1.25;font-family:sans-serif;word-spacing:0px;stroke-width:0.264583">
        <path
           d="m -58.9247,-73.2967 q 1.6784,0 2.6375,1.9431 0.3473,0.7689 0.3638,1.174 h 0.025 q 0.2894,-1.3394 1.0501,-2.2241 0.8929,-0.893 2.0092,-0.893 1.728,0 2.7698,1.8521 0.2646,0.6863 0.2646,1.2898 0,2.0671 -1.7198,3.944 l -4.3739,5.2503 h -0.05 l -4.6467,-5.6968 q -1.3891,-1.695 -1.3891,-3.4975 0,-1.7445 1.6454,-2.7698 0.6945,-0.3721 1.4139,-0.3721 z"
           style="stroke-width:0.264583"
           id="path263" />
      </g>
    </g>
    <g
       style="display:inline;mix-blend-mode:screen"
       inkscape:label="Colour Red"
       id="layer4"
       inkscape:groupmode="layer"
       sodipodi:insensitive="true">
      <rect
         y="1.1693"
         x="1.16931"
         height="86.294"
         width="61.9287"
         id="rect418"
         style="fill:#ff0000;stroke:none;stroke-width:0.25628" />
    </g>
  </g>
</svg>
