<?xml version="1.0" encoding="UTF-8" standalone="no"?>
<svg
   xmlns:dc="http://purl.org/dc/elements/1.1/"
   xmlns:cc="http://creativecommons.org/ns#"
   xmlns:rdf="http://www.w3.org/1999/02/22-rdf-syntax-ns#"
   xmlns:svg="http://www.w3.org/2000/svg"
   xmlns="http://www.w3.org/2000/svg"
   xmlns:sodipodi="http://sodipodi.sourceforge.net/DTD/sodipodi-0.dtd"
   xmlns:inkscape="http://www.inkscape.org/namespaces/inkscape"
   sodipodi:docname="h_8.svg"
   inkscape:version="1.0.2-2 (e86c870879, 2021-01-15)"
   id="svg8"
   version="1.1"
   viewBox="0 0 64 89"
   height="89mm"
   width="64mm">
  <defs
     id="defs2">
    <rect
       id="rect19"
       height="17.639789"
       width="26.459683"
       y="5.7462948"
       x="2.9399648" />
    <rect
       x="2.9399648"
       y="5.7462948"
       width="26.459683"
       height="17.639789"
       id="rect63" />
    <rect
       id="rect83"
       height="17.639789"
       width="26.459683"
       y="5.7462948"
       x="2.9399648" />
    <rect
       x="2.9399648"
       y="5.7462948"
       width="26.459683"
       height="17.639789"
       id="rect103" />
    <rect
       id="rect123"
       height="17.639789"
       width="26.459683"
       y="5.7462948"
       x="2.9399648" />
    <rect
       x="2.9399648"
       y="5.7462948"
       width="26.459683"
       height="17.639789"
       id="rect143" />
    <rect
       id="rect163"
       height="17.639789"
       width="26.459683"
       y="5.7462948"
       x="2.9399648" />
    <rect
       x="2.9399648"
       y="5.7462948"
       width="26.459683"
       height="17.639789"
       id="rect183" />
    <rect
       id="rect203"
       height="17.639789"
       width="26.459683"
       y="5.7462948"
       x="2.9399648" />
    <rect
       x="2.9399648"
       y="5.7462948"
       width="26.459683"
       height="17.639789"
       id="rect223" />
    <rect
       x="2.9399648"
       y="5.7462948"
       width="26.459683"
       height="17.639789"
       id="rect239" />
    <rect
       id="rect255"
       height="17.639789"
       width="26.459683"
       y="5.7462948"
       x="2.9399648" />
    <rect
       x="2.9399648"
       y="5.7462948"
       width="26.459683"
       height="17.639789"
       id="rect271" />
    <rect
       id="rect287"
       height="17.639789"
       width="26.459683"
       y="5.7462948"
       x="2.9399648" />
  </defs>
  <sodipodi:namedview
     inkscape:window-maximized="1"
     inkscape:window-y="-8"
     inkscape:window-x="1912"
     inkscape:window-height="1027"
     inkscape:window-width="1920"
     borderlayer="false"
     lock-margins="true"
     showgrid="false"
     inkscape:document-rotation="0"
     inkscape:current-layer="layer5"
     inkscape:document-units="mm"
     inkscape:cy="190.469"
     inkscape:cx="130.049"
     inkscape:zoom="1.4"
     inkscape:pageshadow="2"
     inkscape:pageopacity="0.0"
     borderopacity="1.0"
     bordercolor="#666666"
     pagecolor="#ffffff"
     id="base"
     inkscape:snap-nodes="false" />
  <metadata
     id="metadata5">
    <rdf:RDF>
      <cc:Work
         rdf:about="">
        <dc:format>image/svg+xml</dc:format>
        <dc:type
           rdf:resource="http://purl.org/dc/dcmitype/StillImage" />
        <dc:title />
      </cc:Work>
    </rdf:RDF>
  </metadata>
  <g
     style="display:inline"
     inkscape:label="Letter"
     id="layer3"
     inkscape:groupmode="layer"
     sodipodi:insensitive="true">
    <g
       style="display:inline"
       inkscape:label="Base Colour (ALWAYS)"
       id="layer5"
       inkscape:groupmode="layer"
       sodipodi:insensitive="true">
      <rect
         style="display:inline;mix-blend-mode:multiply;fill:#ffffff;stroke:#ffffff;stroke-width:0.258351"
         id="rect418-4"
         width="62.3742"
         height="87.0686"
         x="1.11929"
         y="0.968945" />
    </g>
    <g
       style="display:inline"
       inkscape:groupmode="layer"
       id="g181"
       inkscape:label="Eight"
       sodipodi:insensitive="true">
      <text
         xml:space="preserve"
         id="text171"
         style="font-size:16.9333px;line-height:1.25;font-family:sans-serif;word-spacing:0px;white-space:pre;shape-inside:url(#rect183);fill:#000000;" />
      <g
         aria-label="8"
         id="text175"
         style="font-size:16.9333px;line-height:1.25;font-family:sans-serif;word-spacing:0px;stroke-width:0.264583"
         transform="translate(0.75825)">
        <path
           d="m 8.62208,8.34614 q -1.19063,0 -1.87689,0.63665 -0.67799,0.63665 -0.67799,1.75291 0,1.1162 0.67799,1.7528 0.68626,0.6367 1.87689,0.6367 1.19062,0 1.87692,-0.6367 0.6862,-0.6449 0.6862,-1.7528 0,-1.11626 -0.6862,-1.75291 Q 9.82097,8.34614 8.62208,8.34614 Z M 6.9519,7.63507 Q 5.87703,7.37049 5.27345,6.63462 4.67814,5.89875 4.67814,4.84041 q 0,-1.48001 1.05006,-2.3399 1.05833,-0.85989 2.89388,-0.85989 1.84382,0 2.89392,0.85989 1.05,0.85989 1.05,2.3399 0,1.05834 -0.6036,1.79421 -0.5953,0.73587 -1.6619,1.00045 1.2072,0.28112 1.8769,1.09967 0.678,0.81856 0.678,2.00096 0,1.7942 -1.0997,2.7533 -1.0914,0.9591 -3.13362,0.9591 -2.04225,0 -3.14192,-0.9591 -1.09141,-0.9591 -1.09141,-2.7533 0,-1.1824 0.678,-2.00096 Q 5.74474,7.91619 6.9519,7.63507 Z M 6.34005,4.99751 q 0,0.95911 0.59531,1.49655 0.60358,0.53743 1.68672,0.53743 1.07486,0 1.67842,-0.53743 0.6119,-0.53744 0.6119,-1.49655 0,-0.95911 -0.6119,-1.49655 Q 9.69694,2.96353 8.62208,2.96353 7.53894,2.96353 6.93536,3.50096 6.34005,4.0384 6.34005,4.99751 Z"
           style="stroke-width:0.264583"
           id="path208" />
      </g>
      <g
         aria-label="8"
         transform="rotate(180,2e-4,0)"
         id="text179"
         style="font-size:16.9333px;line-height:1.25;font-family:sans-serif;word-spacing:0px;stroke-width:0.264583">
        <path
           d="m -55.5519,-80.5769 q -1.1906,0 -1.8769,0.6367 -0.678,0.6366 -0.678,1.7529 0,1.1162 0.678,1.7528 0.6863,0.6367 1.8769,0.6367 1.1906,0 1.8769,-0.6367 0.6863,-0.6449 0.6863,-1.7528 0,-1.1163 -0.6863,-1.7529 -0.678,-0.6367 -1.8769,-0.6367 z m -1.6702,-0.711 q -1.0748,-0.2646 -1.6784,-1.0005 -0.5953,-0.7359 -0.5953,-1.7942 0,-1.48 1.05,-2.3399 1.0584,-0.8599 2.8939,-0.8599 1.8438,0 2.8939,0.8599 1.05,0.8599 1.05,2.3399 0,1.0583 -0.6035,1.7942 -0.5953,0.7359 -1.6619,1.0005 1.2071,0.2811 1.8768,1.0996 0.678,0.8186 0.678,2.001 0,1.7942 -1.0996,2.7533 -1.0914,0.9591 -3.1337,0.9591 -2.0422,0 -3.1419,-0.9591 -1.0914,-0.9591 -1.0914,-2.7533 0,-1.1824 0.678,-2.001 0.678,-0.8185 1.8851,-1.0996 z m -0.6118,-2.6376 q 0,0.9591 0.5953,1.4966 0.6036,0.5374 1.6867,0.5374 1.0749,0 1.6785,-0.5374 0.6118,-0.5375 0.6118,-1.4966 0,-0.9591 -0.6118,-1.4965 -0.6036,-0.5375 -1.6785,-0.5375 -1.0831,0 -1.6867,0.5375 -0.5953,0.5374 -0.5953,1.4965 z"
           style="stroke-width:0.264583"
           id="path211" />
      </g>
    </g>
    <g
       style="display:inline"
       inkscape:label="Hearts (RED)"
       id="g550"
       inkscape:groupmode="layer"
       sodipodi:insensitive="true">
      <g
         style="display:inline"
         inkscape:label="Hearts Inner"
         id="g540"
         inkscape:groupmode="layer"
         sodipodi:insensitive="true">
        <g
           aria-label="♥"
           id="text538"
           style="font-size:25.4px;line-height:1.25;font-family:sans-serif;word-spacing:0px;display:inline;stroke-width:0.264583"
           transform="translate(0.0289)">
          <path
             d="m 27.8728,34.9108 q 2.5177,0 3.9563,2.9146 0.5209,1.1534 0.5457,1.7611 h 0.037 q 0.434,-2.0092 1.575,-3.3362 1.3395,-1.3395 3.0138,-1.3395 2.5921,0 4.1548,2.7781 0.3969,1.0294 0.3969,1.9348 0,3.1006 -2.5797,5.9159 l -6.5608,7.8755 h -0.075 l -6.9701,-8.5452 q -2.0836,-2.5425 -2.0836,-5.2462 0,-2.6169 2.4681,-4.1548 1.0418,-0.5581 2.1208,-0.5581 z"
             style="font-size:25.4px;stroke-width:0.264583"
             id="path257" />
        </g>
      </g>
      <g
         aria-label="♥"
         id="text544"
         style="font-size:16.9333px;line-height:1.25;font-family:sans-serif;word-spacing:0px;stroke-width:0.264583">
        <path
           d="m 6.31614,16.3144 q 1.67845,0 2.63756,1.9431 0.34727,0.7689 0.3638,1.174 h 0.0248 q 0.28939,-1.3394 1.0501,-2.2241 0.8929,-0.893 2.0091,-0.893 1.7281,0 2.7699,1.8521 0.2646,0.6863 0.2646,1.2898 0,2.0671 -1.7198,3.944 L 9.34231,28.6506 H 9.2927 L 4.64596,22.9538 Q 3.2569,21.2588 3.2569,19.4563 q 0,-1.7445 1.64538,-2.7698 0.69453,-0.3721 1.41386,-0.3721 z"
           style="stroke-width:0.264583"
           id="path260" />
      </g>
      <g
         aria-label="♥"
         transform="rotate(180,-0.264583,0)"
         id="text548"
         style="font-size:16.9333px;line-height:1.25;font-family:sans-serif;word-spacing:0px;stroke-width:0.264583">
        <path
           d="m -58.9247,-73.2967 q 1.6784,0 2.6375,1.9431 0.3473,0.7689 0.3638,1.174 h 0.025 q 0.2894,-1.3394 1.0501,-2.2241 0.8929,-0.893 2.0092,-0.893 1.728,0 2.7698,1.8521 0.2646,0.6863 0.2646,1.2898 0,2.0671 -1.7198,3.944 l -4.3739,5.2503 h -0.05 l -4.6467,-5.6968 q -1.3891,-1.695 -1.3891,-3.4975 0,-1.7445 1.6454,-2.7698 0.6945,-0.3721 1.4139,-0.3721 z"
           style="stroke-width:0.264583"
           id="path263" />
      </g>
    </g>
    <g
       style="display:inline;mix-blend-mode:screen"
       inkscape:label="Colour Red"
       id="layer4"
       inkscape:groupmode="layer"
       sodipodi:insensitive="true">
      <rect
         y="1.1693"
         x="1.16931"
         height="86.294"
         width="61.9287"
         id="rect418"
         style="fill:#ff0000;stroke:none;stroke-width:0.25628" />
    </g>
  </g>
</svg>
