<?xml version="1.0" encoding="UTF-8" standalone="no"?>
<svg
   xmlns:dc="http://purl.org/dc/elements/1.1/"
   xmlns:cc="http://creativecommons.org/ns#"
   xmlns:rdf="http://www.w3.org/1999/02/22-rdf-syntax-ns#"
   xmlns:svg="http://www.w3.org/2000/svg"
   xmlns="http://www.w3.org/2000/svg"
   xmlns:sodipodi="http://sodipodi.sourceforge.net/DTD/sodipodi-0.dtd"
   xmlns:inkscape="http://www.inkscape.org/namespaces/inkscape"
   sodipodi:docname="h_9.svg"
   inkscape:version="1.0.2-2 (e86c870879, 2021-01-15)"
   id="svg8"
   version="1.1"
   viewBox="0 0 64 89"
   height="89mm"
   width="64mm">
  <defs
     id="defs2">
    <rect
       id="rect19"
       height="17.639789"
       width="26.459683"
       y="5.7462948"
       x="2.9399648" />
    <rect
       x="2.9399648"
       y="5.7462948"
       width="26.459683"
       height="17.639789"
       id="rect63" />
    <rect
       id="rect83"
       height="17.639789"
       width="26.459683"
       y="5.7462948"
       x="2.9399648" />
    <rect
       x="2.9399648"
       y="5.7462948"
       width="26.459683"
       height="17.639789"
       id="rect103" />
    <rect
       id="rect123"
       height="17.639789"
       width="26.459683"
       y="5.7462948"
       x="2.9399648" />
    <rect
       x="2.9399648"
       y="5.7462948"
       width="26.459683"
       height="17.639789"
       id="rect143" />
    <rect
       id="rect163"
       height="17.639789"
       width="26.459683"
       y="5.7462948"
       x="2.9399648" />
    <rect
       x="2.9399648"
       y="5.7462948"
       width="26.459683"
       height="17.639789"
       id="rect183" />
    <rect
       id="rect203"
       height="17.639789"
       width="26.459683"
       y="5.7462948"
       x="2.9399648" />
    <rect
       x="2.9399648"
       y="5.7462948"
       width="26.459683"
       height="17.639789"
       id="rect223" />
    <rect
       x="2.9399648"
       y="5.7462948"
       width="26.459683"
       height="17.639789"
       id="rect239" />
    <rect
       id="rect255"
       height="17.639789"
       width="26.459683"
       y="5.7462948"
       x="2.9399648" />
    <rect
       x="2.9399648"
       y="5.7462948"
       width="26.459683"
       height="17.639789"
       id="rect271" />
    <rect
       id="rect287"
       height="17.639789"
       width="26.459683"
       y="5.7462948"
       x="2.9399648" />
  </defs>
  <sodipodi:namedview
     inkscape:window-maximized="1"
     inkscape:window-y="-8"
     inkscape:window-x="1912"
     inkscape:window-height="1027"
     inkscape:window-width="1920"
     borderlayer="false"
     lock-margins="true"
     showgrid="false"
     inkscape:document-rotation="0"
     inkscape:current-layer="layer5"
     inkscape:document-units="mm"
     inkscape:cy="190.469"
     inkscape:cx="130.049"
     inkscape:zoom="1.4"
     inkscape:pageshadow="2"
     inkscape:pageopacity="0.0"
     borderopacity="1.0"
     bordercolor="#666666"
     pagecolor="#ffffff"
     id="base"
     inkscape:snap-nodes="false" />
  <metadata
     id="metadata5">
    <rdf:RDF>
      <cc:Work
         rdf:about="">
        <dc:format>image/svg+xml</dc:format>
        <dc:type
           rdf:resource="http://purl.org/dc/dcmitype/StillImage" />
        <dc:title />
      </cc:Work>
    </rdf:RDF>
  </metadata>
  <g
     style="display:inline"
     inkscape:label="Letter"
     id="layer3"
     inkscape:groupmode="layer"
     sodipodi:insensitive="true">
    <g
       style="display:inline"
       inkscape:label="Base Colour (ALWAYS)"
       id="layer5"
       inkscape:groupmode="layer"
       sodipodi:insensitive="true">
      <rect
         style="display:inline;mix-blend-mode:multiply;fill:#ffffff;stroke:#ffffff;stroke-width:0.258351"
         id="rect418-4"
         width="62.3742"
         height="87.0686"
         x="1.11929"
         y="0.968945" />
    </g>
    <g
       inkscape:label="Nine"
       id="g201"
       inkscape:groupmode="layer"
       style="display:inline"
       sodipodi:insensitive="true">
      <text
         style="font-size:16.9333px;line-height:1.25;font-family:sans-serif;word-spacing:0px;white-space:pre;shape-inside:url(#rect203);fill:#000000;"
         id="text191"
         xml:space="preserve" />
      <g
         aria-label="9"
         id="text195"
         style="font-size:16.9333px;line-height:1.25;font-family:sans-serif;word-spacing:0px;stroke-width:0.264583"
         transform="translate(0.32876)">
        <path
           d="m 5.62899,13.952 v -1.5214 q 0.62838,0.2977 1.2733,0.4548 0.64492,0.1571 1.26504,0.1571 1.65364,0 2.52177,-1.108 0.8765,-1.1162 1.0005,-3.38166 Q 11.21,9.26391 10.4742,9.64425 9.73829,10.0246 8.84532,10.0246 6.99324,10.0246 5.91011,8.90838 4.83524,7.7839 4.83524,5.84087 q 0,-1.90169 1.12448,-3.05097 1.12447,-1.14928 2.99309,-1.14928 2.14149,0 3.26599,1.64537 1.1327,1.63711 1.1327,4.76249 0,2.91872 -1.3891,4.66332 -1.3808,1.7363 -3.72066,1.7363 -0.62838,0 -1.2733,-0.124 Q 6.32352,14.2 5.62899,13.952 Z M 8.95281,8.71821 q 1.12449,0 1.77769,-0.76895 0.6614,-0.76894 0.6614,-2.10839 0,-1.33118 -0.6614,-2.10013 -0.6532,-0.77721 -1.77769,-0.77721 -1.12448,0 -1.78593,0.77721 -0.65319,0.76895 -0.65319,2.10013 0,1.33945 0.65319,2.10839 0.66145,0.76895 1.78593,0.76895 z"
           style="stroke-width:0.264583"
           id="path233" />
      </g>
      <g
         aria-label="9"
         transform="rotate(180,0.1498,0)"
         id="text199"
         style="font-size:16.9333px;line-height:1.25;font-family:sans-serif;word-spacing:0px;stroke-width:0.264583">
        <path
           d="m -58.545,-74.971 v -1.5214 q 0.6284,0.2977 1.2734,0.4548 0.6449,0.1571 1.265,0.1571 1.6536,0 2.5218,-1.108 0.8764,-1.1162 1.0004,-3.3817 -0.4795,0.7111 -1.2154,1.0914 -0.7359,0.3804 -1.6288,0.3804 -1.8521,0 -2.9352,-1.1162 -1.0749,-1.1245 -1.0749,-3.0675 0,-1.9017 1.1245,-3.051 1.1245,-1.1493 2.9931,-1.1493 2.1414,0 3.2659,1.6454 1.1328,1.6371 1.1328,4.7625 0,2.9187 -1.3891,4.6633 -1.3808,1.7363 -3.7207,1.7363 -0.6284,0 -1.2733,-0.124 -0.6449,-0.1241 -1.3395,-0.3721 z m 3.3239,-5.2338 q 1.1244,0 1.7776,-0.7689 0.6615,-0.769 0.6615,-2.1084 0,-1.3312 -0.6615,-2.1002 -0.6532,-0.7772 -1.7776,-0.7772 -1.1245,0 -1.786,0.7772 -0.6532,0.769 -0.6532,2.1002 0,1.3394 0.6532,2.1084 0.6615,0.7689 1.786,0.7689 z"
           style="stroke-width:0.264583"
           id="path236" />
      </g>
    </g>
    <g
       style="display:inline"
       inkscape:label="Hearts (RED)"
       id="g550"
       inkscape:groupmode="layer"
       sodipodi:insensitive="true">
      <g
         style="display:inline"
         inkscape:label="Hearts Inner"
         id="g540"
         inkscape:groupmode="layer"
         sodipodi:insensitive="true">
        <g
           aria-label="♥"
           id="text538"
           style="font-size:25.4px;line-height:1.25;font-family:sans-serif;word-spacing:0px;display:inline;stroke-width:0.264583"
           transform="translate(0.0289)">
          <path
             d="m 27.8728,34.9108 q 2.5177,0 3.9563,2.9146 0.5209,1.1534 0.5457,1.7611 h 0.037 q 0.434,-2.0092 1.575,-3.3362 1.3395,-1.3395 3.0138,-1.3395 2.5921,0 4.1548,2.7781 0.3969,1.0294 0.3969,1.9348 0,3.1006 -2.5797,5.9159 l -6.5608,7.8755 h -0.075 l -6.9701,-8.5452 q -2.0836,-2.5425 -2.0836,-5.2462 0,-2.6169 2.4681,-4.1548 1.0418,-0.5581 2.1208,-0.5581 z"
             style="font-size:25.4px;stroke-width:0.264583"
             id="path257" />
        </g>
      </g>
      <g
         aria-label="♥"
         id="text544"
         style="font-size:16.9333px;line-height:1.25;font-family:sans-serif;word-spacing:0px;stroke-width:0.264583">
        <path
           d="m 6.31614,16.3144 q 1.67845,0 2.63756,1.9431 0.34727,0.7689 0.3638,1.174 h 0.0248 q 0.28939,-1.3394 1.0501,-2.2241 0.8929,-0.893 2.0091,-0.893 1.7281,0 2.7699,1.8521 0.2646,0.6863 0.2646,1.2898 0,2.0671 -1.7198,3.944 L 9.34231,28.6506 H 9.2927 L 4.64596,22.9538 Q 3.2569,21.2588 3.2569,19.4563 q 0,-1.7445 1.64538,-2.7698 0.69453,-0.3721 1.41386,-0.3721 z"
           style="stroke-width:0.264583"
           id="path260" />
      </g>
      <g
         aria-label="♥"
         transform="rotate(180,-0.264583,0)"
         id="text548"
         style="font-size:16.9333px;line-height:1.25;font-family:sans-serif;word-spacing:0px;stroke-width:0.264583">
        <path
           d="m -58.9247,-73.2967 q 1.6784,0 2.6375,1.9431 0.3473,0.7689 0.3638,1.174 h 0.025 q 0.2894,-1.3394 1.0501,-2.2241 0.8929,-0.893 2.0092,-0.893 1.728,0 2.7698,1.8521 0.2646,0.6863 0.2646,1.2898 0,2.0671 -1.7198,3.944 l -4.3739,5.2503 h -0.05 l -4.6467,-5.6968 q -1.3891,-1.695 -1.3891,-3.4975 0,-1.7445 1.6454,-2.7698 0.6945,-0.3721 1.4139,-0.3721 z"
           style="stroke-width:0.264583"
           id="path263" />
      </g>
    </g>
    <g
       style="display:inline;mix-blend-mode:screen"
       inkscape:label="Colour Red"
       id="layer4"
       inkscape:groupmode="layer"
       sodipodi:insensitive="true">
      <rect
         y="1.1693"
         x="1.16931"
         height="86.294"
         width="61.9287"
         id="rect418"
         style="fill:#ff0000;stroke:none;stroke-width:0.25628" />
    </g>
  </g>
</svg>
