<?xml version="1.0" encoding="UTF-8" standalone="no"?>
<svg
   xmlns:dc="http://purl.org/dc/elements/1.1/"
   xmlns:cc="http://creativecommons.org/ns#"
   xmlns:rdf="http://www.w3.org/1999/02/22-rdf-syntax-ns#"
   xmlns:svg="http://www.w3.org/2000/svg"
   xmlns="http://www.w3.org/2000/svg"
   xmlns:sodipodi="http://sodipodi.sourceforge.net/DTD/sodipodi-0.dtd"
   xmlns:inkscape="http://www.inkscape.org/namespaces/inkscape"
   sodipodi:docname="c_5.svg"
   inkscape:version="1.0.2-2 (e86c870879, 2021-01-15)"
   id="svg8"
   version="1.1"
   viewBox="0 0 64 89"
   height="89mm"
   width="64mm">
  <defs
     id="defs2">
    <rect
       id="rect19"
       height="17.639789"
       width="26.459683"
       y="5.7462948"
       x="2.9399648" />
    <rect
       x="2.9399648"
       y="5.7462948"
       width="26.459683"
       height="17.639789"
       id="rect63" />
    <rect
       id="rect83"
       height="17.639789"
       width="26.459683"
       y="5.7462948"
       x="2.9399648" />
    <rect
       x="2.9399648"
       y="5.7462948"
       width="26.459683"
       height="17.639789"
       id="rect103" />
    <rect
       id="rect123"
       height="17.639789"
       width="26.459683"
       y="5.7462948"
       x="2.9399648" />
    <rect
       x="2.9399648"
       y="5.7462948"
       width="26.459683"
       height="17.639789"
       id="rect143" />
    <rect
       id="rect163"
       height="17.639789"
       width="26.459683"
       y="5.7462948"
       x="2.9399648" />
    <rect
       x="2.9399648"
       y="5.7462948"
       width="26.459683"
       height="17.639789"
       id="rect183" />
    <rect
       id="rect203"
       height="17.639789"
       width="26.459683"
       y="5.7462948"
       x="2.9399648" />
    <rect
       x="2.9399648"
       y="5.7462948"
       width="26.459683"
       height="17.639789"
       id="rect223" />
    <rect
       x="2.9399648"
       y="5.7462948"
       width="26.459683"
       height="17.639789"
       id="rect239" />
    <rect
       id="rect255"
       height="17.639789"
       width="26.459683"
       y="5.7462948"
       x="2.9399648" />
    <rect
       x="2.9399648"
       y="5.7462948"
       width="26.459683"
       height="17.639789"
       id="rect271" />
    <rect
       id="rect287"
       height="17.639789"
       width="26.459683"
       y="5.7462948"
       x="2.9399648" />
  </defs>
  <sodipodi:namedview
     inkscape:window-maximized="1"
     inkscape:window-y="-8"
     inkscape:window-x="1912"
     inkscape:window-height="1027"
     inkscape:window-width="1920"
     borderlayer="false"
     lock-margins="true"
     showgrid="false"
     inkscape:document-rotation="0"
     inkscape:current-layer="layer1"
     inkscape:document-units="mm"
     inkscape:cy="99.6849"
     inkscape:cx="56.2754"
     inkscape:zoom="1.4"
     inkscape:pageshadow="2"
     inkscape:pageopacity="0.0"
     borderopacity="1.0"
     bordercolor="#666666"
     pagecolor="#ffffff"
     id="base"
     inkscape:snap-nodes="false" />
  <metadata
     id="metadata5">
    <rdf:RDF>
      <cc:Work
         rdf:about="">
        <dc:format>image/svg+xml</dc:format>
        <dc:type
           rdf:resource="http://purl.org/dc/dcmitype/StillImage" />
        <dc:title />
      </cc:Work>
    </rdf:RDF>
  </metadata>
  <g
     inkscape:groupmode="layer"
     id="layer1"
     inkscape:label="Base"
     sodipodi:insensitive="true">
    <rect
       style="fill:#ffffff;stroke:none;stroke-width:0.264583"
       id="rect36"
       width="64"
       height="89"
       x="-1.11022e-16"
       y="-5.55112e-17" />
  </g>
  <g
     style="display:inline"
     inkscape:label="Letter"
     id="layer3"
     inkscape:groupmode="layer"
     sodipodi:insensitive="true">
    <g
       inkscape:label="Five"
       id="g121"
       inkscape:groupmode="layer"
       style="display:inline"
       sodipodi:insensitive="true">
      <text
         style="font-size:16.9333px;line-height:1.25;font-family:sans-serif;word-spacing:0px;white-space:pre;shape-inside:url(#rect123);fill:#000000;"
         id="text111"
         xml:space="preserve" />
      <g
         aria-label="5"
         id="text115"
         style="font-size:16.9333px;line-height:1.25;font-family:sans-serif;word-spacing:0px;stroke-width:0.264583"
         transform="translate(0.75815)">
        <path
           d="M 5.06675,1.86386 H 11.6234 V 3.26945 H 6.59636 v 3.02617 q 0.36381,-0.12402 0.72761,-0.1819 0.3638,-0.0661 0.7276,-0.0661 2.06703,0 3.27423,1.13275 1.2071,1.13274 1.2071,3.06743 0,1.9927 -1.2402,3.1006 -1.2402,1.0997 -3.49744,1.0997 -0.77722,0 -1.5875,-0.1323 -0.80202,-0.1323 -1.66191,-0.3969 v -1.6784 q 0.74414,0.4051 1.53789,0.6035 0.79374,0.1985 1.67844,0.1985 1.4304,0 2.26552,-0.7524 0.8351,-0.7524 0.8351,-2.0423 0,-1.28977 -0.8351,-2.04217 Q 9.19258,7.45317 7.76218,7.45317 7.09246,7.45317 6.42273,7.602 5.76127,7.75083 5.06675,8.06502 Z"
           style="stroke-width:0.264583"
           id="path178" />
      </g>
      <g
         aria-label="5"
         transform="rotate(180,-0.1645,0)"
         id="text119"
         style="font-size:16.9333px;line-height:1.25;font-family:sans-serif;word-spacing:0px;stroke-width:0.264583">
        <path
           d="m -59.1072,-87.0591 h 6.5567 v 1.4056 h -5.0271 v 3.0261 q 0.3638,-0.124 0.7276,-0.1819 0.3638,-0.066 0.7276,-0.066 2.0671,0 3.2742,1.1327 1.2072,1.1328 1.2072,3.0675 0,1.9927 -1.2403,3.1006 -1.2402,1.0997 -3.4974,1.0997 -0.7772,0 -1.5875,-0.1323 -0.802,-0.1323 -1.6619,-0.3969 v -1.6784 q 0.7441,0.4051 1.5379,0.6035 0.7937,0.1985 1.6784,0.1985 1.4304,0 2.2655,-0.7524 0.8351,-0.7524 0.8351,-2.0423 0,-1.2898 -0.8351,-2.0422 -0.8351,-0.7524 -2.2655,-0.7524 -0.6697,0 -1.3394,0.1488 -0.6615,0.1488 -1.356,0.463 z"
           style="stroke-width:0.264583"
           id="path181" />
      </g>
    </g>
    <g
       style="display:inline"
       inkscape:label="Clubs"
       id="layer6"
       inkscape:groupmode="layer"
       sodipodi:insensitive="true">
      <g
         style="display:inline"
         inkscape:label="Clubs Inner"
         id="layer7"
         inkscape:groupmode="layer">
        <g
           aria-label="♣"
           id="text441-6"
           style="font-size:25.4px;line-height:1.25;font-family:sans-serif;word-spacing:0px;display:inline;stroke-width:0.264583">
          <path
             d="m 32.4245,34.9108 q 2.6541,0 3.9067,2.8153 0.1612,0.645 0.1984,1.3395 0,1.4511 -1.4883,3.4354 l -0.7441,0.7442 h 0.037 q 0.9178,-0.3473 1.9596,-0.3473 h 0.2356 q 2.9518,0 4.1424,2.5053 0.2853,0.8185 0.2853,1.5627 0,2.5425 -2.5921,3.8323 -0.4961,0.1488 -1.3767,0.2232 -3.0014,0 -4.254,-3.3982 h -0.037 v 0.1116 q 0,4.254 1.017,5.6059 v 0.074 h -2.5797 l -0.074,-0.074 q 1.0542,-1.5875 1.0542,-5.7175 v -0.037 h -0.037 q -1.2402,3.4354 -4.2788,3.4354 -2.3689,0 -3.6339,-2.4928 -0.3101,-0.8434 -0.3101,-1.5627 0,-2.8898 3.051,-3.9192 0.8186,-0.1488 1.4511,-0.1488 h 0.1116 q 1.0666,0 2.034,0.3473 h 0.037 v -0.037 Q 29.4979,42.3278 29.1382,41.472 28.3941,40.1078 28.3941,39.1032 v -0.1736 q 0,-2.4929 2.6665,-3.7828 0.8806,-0.2356 1.3643,-0.2356 z"
             style="font-size:25.4px;stroke-width:0.264583"
             id="path224" />
        </g>
      </g>
      <g
         aria-label="♣"
         id="text441"
         style="font-size:16.9333px;line-height:1.25;font-family:sans-serif;word-spacing:0px;stroke-width:0.264583">
        <path
           d="m 9.45058,15.7852 q 1.76942,0 2.60452,1.8769 0.1075,0.43 0.1323,0.893 0,0.9674 -0.9922,2.2903 l -0.4961,0.4961 h 0.025 Q 11.3357,21.11 12.0303,21.11 h 0.1571 q 1.9678,0 2.7615,1.6701 0.1902,0.5457 0.1902,1.0418 0,1.695 -1.728,2.5549 -0.3308,0.099 -0.9178,0.1488 -2.0009,0 -2.83602,-2.2655 h -0.0248 v 0.074 q 0,2.836 0.67802,3.7372 v 0.05 H 8.59068 l -0.0496,-0.05 q 0.7028,-1.0583 0.7028,-3.8117 v -0.025 h -0.0248 q -0.82682,2.2903 -2.85254,2.2903 -1.57922,0 -2.42258,-1.6619 -0.20671,-0.5622 -0.20671,-1.0418 0,-1.9265 2.03398,-2.6127 0.5457,-0.099 0.96738,-0.099 h 0.0744 q 0.71106,0 1.35598,0.2315 h 0.0248 V 21.316 Q 7.49928,20.7296 7.2595,20.1591 6.76341,19.2496 6.76341,18.5799 v -0.1158 q 0,-1.6619 1.77766,-2.5218 0.58705,-0.1571 0.90951,-0.1571 z"
           style="stroke-width:0.264583"
           id="path227" />
      </g>
      <g
         aria-label="♣"
         transform="scale(-1)"
         id="text441-5"
         style="font-size:16.9333px;line-height:1.25;font-family:sans-serif;word-spacing:0px;stroke-width:0.264583">
        <path
           d="m -55.3611,-72.7676 q 1.7694,0 2.6045,1.8769 0.1075,0.43 0.1323,0.893 0,0.9674 -0.9922,2.2903 l -0.4961,0.4961 h 0.025 q 0.6118,-0.2315 1.3064,-0.2315 h 0.1571 q 1.9678,0 2.7616,1.6701 0.1901,0.5457 0.1901,1.0418 0,1.695 -1.728,2.5549 -0.3308,0.099 -0.9178,0.1488 -2.0009,0 -2.836,-2.2655 h -0.025 v 0.075 q 0,2.836 0.678,3.7372 v 0.05 h -1.7198 l -0.05,-0.05 q 0.7028,-1.0583 0.7028,-3.8117 v -0.025 h -0.025 q -0.8268,2.2903 -2.8526,2.2903 -1.5792,0 -2.4225,-1.6619 -0.2067,-0.5622 -0.2067,-1.0418 0,-1.9265 2.0339,-2.6127 0.5457,-0.099 0.9674,-0.099 h 0.074 q 0.7111,0 1.356,0.2315 h 0.025 v -0.025 q -0.6945,-0.5871 -0.9343,-1.1576 -0.4961,-0.9095 -0.4961,-1.5792 v -0.1158 q 0,-1.6619 1.7777,-2.5218 0.587,-0.1571 0.9095,-0.1571 z"
           style="stroke-width:0.264583"
           id="path230" />
      </g>
    </g>
  </g>
</svg>
