<?xml version="1.0" encoding="UTF-8" standalone="no"?>
<svg
   xmlns:dc="http://purl.org/dc/elements/1.1/"
   xmlns:cc="http://creativecommons.org/ns#"
   xmlns:rdf="http://www.w3.org/1999/02/22-rdf-syntax-ns#"
   xmlns:svg="http://www.w3.org/2000/svg"
   xmlns="http://www.w3.org/2000/svg"
   xmlns:sodipodi="http://sodipodi.sourceforge.net/DTD/sodipodi-0.dtd"
   xmlns:inkscape="http://www.inkscape.org/namespaces/inkscape"
   sodipodi:docname="c_8.svg"
   inkscape:version="1.0.2-2 (e86c870879, 2021-01-15)"
   id="svg8"
   version="1.1"
   viewBox="0 0 64 89"
   height="89mm"
   width="64mm">
  <defs
     id="defs2">
    <rect
       id="rect19"
       height="17.639789"
       width="26.459683"
       y="5.7462948"
       x="2.9399648" />
    <rect
       x="2.9399648"
       y="5.7462948"
       width="26.459683"
       height="17.639789"
       id="rect63" />
    <rect
       id="rect83"
       height="17.639789"
       width="26.459683"
       y="5.7462948"
       x="2.9399648" />
    <rect
       x="2.9399648"
       y="5.7462948"
       width="26.459683"
       height="17.639789"
       id="rect103" />
    <rect
       id="rect123"
       height="17.639789"
       width="26.459683"
       y="5.7462948"
       x="2.9399648" />
    <rect
       x="2.9399648"
       y="5.7462948"
       width="26.459683"
       height="17.639789"
       id="rect143" />
    <rect
       id="rect163"
       height="17.639789"
       width="26.459683"
       y="5.7462948"
       x="2.9399648" />
    <rect
       x="2.9399648"
       y="5.7462948"
       width="26.459683"
       height="17.639789"
       id="rect183" />
    <rect
       id="rect203"
       height="17.639789"
       width="26.459683"
       y="5.7462948"
       x="2.9399648" />
    <rect
       x="2.9399648"
       y="5.7462948"
       width="26.459683"
       height="17.639789"
       id="rect223" />
    <rect
       x="2.9399648"
       y="5.7462948"
       width="26.459683"
       height="17.639789"
       id="rect239" />
    <rect
       id="rect255"
       height="17.639789"
       width="26.459683"
       y="5.7462948"
       x="2.9399648" />
    <rect
       x="2.9399648"
       y="5.7462948"
       width="26.459683"
       height="17.639789"
       id="rect271" />
    <rect
       id="rect287"
       height="17.639789"
       width="26.459683"
       y="5.7462948"
       x="2.9399648" />
  </defs>
  <sodipodi:namedview
     inkscape:window-maximized="1"
     inkscape:window-y="-8"
     inkscape:window-x="1912"
     inkscape:window-height="1027"
     inkscape:window-width="1920"
     borderlayer="false"
     lock-margins="true"
     showgrid="false"
     inkscape:document-rotation="0"
     inkscape:current-layer="layer1"
     inkscape:document-units="mm"
     inkscape:cy="99.6849"
     inkscape:cx="56.2754"
     inkscape:zoom="1.4"
     inkscape:pageshadow="2"
     inkscape:pageopacity="0.0"
     borderopacity="1.0"
     bordercolor="#666666"
     pagecolor="#ffffff"
     id="base"
     inkscape:snap-nodes="false" />
  <metadata
     id="metadata5">
    <rdf:RDF>
      <cc:Work
         rdf:about="">
        <dc:format>image/svg+xml</dc:format>
        <dc:type
           rdf:resource="http://purl.org/dc/dcmitype/StillImage" />
        <dc:title />
      </cc:Work>
    </rdf:RDF>
  </metadata>
  <g
     inkscape:groupmode="layer"
     id="layer1"
     inkscape:label="Base"
     sodipodi:insensitive="true">
    <rect
       style="fill:#ffffff;stroke:none;stroke-width:0.264583"
       id="rect36"
       width="64"
       height="89"
       x="0"
       y="0" />
  </g>
  <g
     style="display:inline"
     inkscape:label="Letter"
     id="layer3"
     inkscape:groupmode="layer"
     sodipodi:insensitive="true">
    <g
       style="display:inline"
       inkscape:groupmode="layer"
       id="g181"
       inkscape:label="Eight"
       sodipodi:insensitive="true">
      <text
         xml:space="preserve"
         id="text171"
         style="font-size:16.9333px;line-height:1.25;font-family:sans-serif;word-spacing:0px;white-space:pre;shape-inside:url(#rect183);fill:#000000;" />
      <g
         aria-label="8"
         id="text175"
         style="font-size:16.9333px;line-height:1.25;font-family:sans-serif;word-spacing:0px;stroke-width:0.264583"
         transform="translate(0.75825)">
        <path
           d="m 8.62208,8.34614 q -1.19063,0 -1.87689,0.63665 -0.67799,0.63665 -0.67799,1.75291 0,1.1162 0.67799,1.7528 0.68626,0.6367 1.87689,0.6367 1.19062,0 1.87692,-0.6367 0.6862,-0.6449 0.6862,-1.7528 0,-1.11626 -0.6862,-1.75291 Q 9.82097,8.34614 8.62208,8.34614 Z M 6.9519,7.63507 Q 5.87703,7.37049 5.27345,6.63462 4.67814,5.89875 4.67814,4.84041 q 0,-1.48001 1.05006,-2.3399 1.05833,-0.85989 2.89388,-0.85989 1.84382,0 2.89392,0.85989 1.05,0.85989 1.05,2.3399 0,1.05834 -0.6036,1.79421 -0.5953,0.73587 -1.6619,1.00045 1.2072,0.28112 1.8769,1.09967 0.678,0.81856 0.678,2.00096 0,1.7942 -1.0997,2.7533 -1.0914,0.9591 -3.13362,0.9591 -2.04225,0 -3.14192,-0.9591 -1.09141,-0.9591 -1.09141,-2.7533 0,-1.1824 0.678,-2.00096 Q 5.74474,7.91619 6.9519,7.63507 Z M 6.34005,4.99751 q 0,0.95911 0.59531,1.49655 0.60358,0.53743 1.68672,0.53743 1.07486,0 1.67842,-0.53743 0.6119,-0.53744 0.6119,-1.49655 0,-0.95911 -0.6119,-1.49655 Q 9.69694,2.96353 8.62208,2.96353 7.53894,2.96353 6.93536,3.50096 6.34005,4.0384 6.34005,4.99751 Z"
           style="stroke-width:0.264583"
           id="path208" />
      </g>
      <g
         aria-label="8"
         transform="rotate(180,2e-4,0)"
         id="text179"
         style="font-size:16.9333px;line-height:1.25;font-family:sans-serif;word-spacing:0px;stroke-width:0.264583">
        <path
           d="m -55.5519,-80.5769 q -1.1906,0 -1.8769,0.6367 -0.678,0.6366 -0.678,1.7529 0,1.1162 0.678,1.7528 0.6863,0.6367 1.8769,0.6367 1.1906,0 1.8769,-0.6367 0.6863,-0.6449 0.6863,-1.7528 0,-1.1163 -0.6863,-1.7529 -0.678,-0.6367 -1.8769,-0.6367 z m -1.6702,-0.711 q -1.0748,-0.2646 -1.6784,-1.0005 -0.5953,-0.7359 -0.5953,-1.7942 0,-1.48 1.05,-2.3399 1.0584,-0.8599 2.8939,-0.8599 1.8438,0 2.8939,0.8599 1.05,0.8599 1.05,2.3399 0,1.0583 -0.6035,1.7942 -0.5953,0.7359 -1.6619,1.0005 1.2071,0.2811 1.8768,1.0996 0.678,0.8186 0.678,2.001 0,1.7942 -1.0996,2.7533 -1.0914,0.9591 -3.1337,0.9591 -2.0422,0 -3.1419,-0.9591 -1.0914,-0.9591 -1.0914,-2.7533 0,-1.1824 0.678,-2.001 0.678,-0.8185 1.8851,-1.0996 z m -0.6118,-2.6376 q 0,0.9591 0.5953,1.4966 0.6036,0.5374 1.6867,0.5374 1.0749,0 1.6785,-0.5374 0.6118,-0.5375 0.6118,-1.4966 0,-0.9591 -0.6118,-1.4965 -0.6036,-0.5375 -1.6785,-0.5375 -1.0831,0 -1.6867,0.5375 -0.5953,0.5374 -0.5953,1.4965 z"
           style="stroke-width:0.264583"
           id="path211" />
      </g>
    </g>
    <g
       style="display:inline"
       inkscape:label="Clubs"
       id="layer6"
       inkscape:groupmode="layer"
       sodipodi:insensitive="true">
      <g
         style="display:inline"
         inkscape:label="Clubs Inner"
         id="layer7"
         inkscape:groupmode="layer">
        <g
           aria-label="♣"
           id="text441-6"
           style="font-size:25.4px;line-height:1.25;font-family:sans-serif;word-spacing:0px;display:inline;stroke-width:0.264583">
          <path
             d="m 32.4245,34.9108 q 2.6541,0 3.9067,2.8153 0.1612,0.645 0.1984,1.3395 0,1.4511 -1.4883,3.4354 l -0.7441,0.7442 h 0.037 q 0.9178,-0.3473 1.9596,-0.3473 h 0.2356 q 2.9518,0 4.1424,2.5053 0.2853,0.8185 0.2853,1.5627 0,2.5425 -2.5921,3.8323 -0.4961,0.1488 -1.3767,0.2232 -3.0014,0 -4.254,-3.3982 h -0.037 v 0.1116 q 0,4.254 1.017,5.6059 v 0.074 h -2.5797 l -0.074,-0.074 q 1.0542,-1.5875 1.0542,-5.7175 v -0.037 h -0.037 q -1.2402,3.4354 -4.2788,3.4354 -2.3689,0 -3.6339,-2.4928 -0.3101,-0.8434 -0.3101,-1.5627 0,-2.8898 3.051,-3.9192 0.8186,-0.1488 1.4511,-0.1488 h 0.1116 q 1.0666,0 2.034,0.3473 h 0.037 v -0.037 Q 29.4979,42.3278 29.1382,41.472 28.3941,40.1078 28.3941,39.1032 v -0.1736 q 0,-2.4929 2.6665,-3.7828 0.8806,-0.2356 1.3643,-0.2356 z"
             style="font-size:25.4px;stroke-width:0.264583"
             id="path224" />
        </g>
      </g>
      <g
         aria-label="♣"
         id="text441"
         style="font-size:16.9333px;line-height:1.25;font-family:sans-serif;word-spacing:0px;stroke-width:0.264583">
        <path
           d="m 9.45058,15.7852 q 1.76942,0 2.60452,1.8769 0.1075,0.43 0.1323,0.893 0,0.9674 -0.9922,2.2903 l -0.4961,0.4961 h 0.025 Q 11.3357,21.11 12.0303,21.11 h 0.1571 q 1.9678,0 2.7615,1.6701 0.1902,0.5457 0.1902,1.0418 0,1.695 -1.728,2.5549 -0.3308,0.099 -0.9178,0.1488 -2.0009,0 -2.83602,-2.2655 h -0.0248 v 0.074 q 0,2.836 0.67802,3.7372 v 0.05 H 8.59068 l -0.0496,-0.05 q 0.7028,-1.0583 0.7028,-3.8117 v -0.025 h -0.0248 q -0.82682,2.2903 -2.85254,2.2903 -1.57922,0 -2.42258,-1.6619 -0.20671,-0.5622 -0.20671,-1.0418 0,-1.9265 2.03398,-2.6127 0.5457,-0.099 0.96738,-0.099 h 0.0744 q 0.71106,0 1.35598,0.2315 h 0.0248 V 21.316 Q 7.49928,20.7296 7.2595,20.1591 6.76341,19.2496 6.76341,18.5799 v -0.1158 q 0,-1.6619 1.77766,-2.5218 0.58705,-0.1571 0.90951,-0.1571 z"
           style="stroke-width:0.264583"
           id="path227" />
      </g>
      <g
         aria-label="♣"
         transform="scale(-1)"
         id="text441-5"
         style="font-size:16.9333px;line-height:1.25;font-family:sans-serif;word-spacing:0px;stroke-width:0.264583">
        <path
           d="m -55.3611,-72.7676 q 1.7694,0 2.6045,1.8769 0.1075,0.43 0.1323,0.893 0,0.9674 -0.9922,2.2903 l -0.4961,0.4961 h 0.025 q 0.6118,-0.2315 1.3064,-0.2315 h 0.1571 q 1.9678,0 2.7616,1.6701 0.1901,0.5457 0.1901,1.0418 0,1.695 -1.728,2.5549 -0.3308,0.099 -0.9178,0.1488 -2.0009,0 -2.836,-2.2655 h -0.025 v 0.075 q 0,2.836 0.678,3.7372 v 0.05 h -1.7198 l -0.05,-0.05 q 0.7028,-1.0583 0.7028,-3.8117 v -0.025 h -0.025 q -0.8268,2.2903 -2.8526,2.2903 -1.5792,0 -2.4225,-1.6619 -0.2067,-0.5622 -0.2067,-1.0418 0,-1.9265 2.0339,-2.6127 0.5457,-0.099 0.9674,-0.099 h 0.074 q 0.7111,0 1.356,0.2315 h 0.025 v -0.025 q -0.6945,-0.5871 -0.9343,-1.1576 -0.4961,-0.9095 -0.4961,-1.5792 v -0.1158 q 0,-1.6619 1.7777,-2.5218 0.587,-0.1571 0.9095,-0.1571 z"
           style="stroke-width:0.264583"
           id="path230" />
      </g>
    </g>
  </g>
</svg>
