<?xml version="1.0" encoding="UTF-8" standalone="no"?>
<svg
   xmlns:dc="http://purl.org/dc/elements/1.1/"
   xmlns:cc="http://creativecommons.org/ns#"
   xmlns:rdf="http://www.w3.org/1999/02/22-rdf-syntax-ns#"
   xmlns:svg="http://www.w3.org/2000/svg"
   xmlns="http://www.w3.org/2000/svg"
   xmlns:sodipodi="http://sodipodi.sourceforge.net/DTD/sodipodi-0.dtd"
   xmlns:inkscape="http://www.inkscape.org/namespaces/inkscape"
   sodipodi:docname="c_9.svg"
   inkscape:version="1.0.2-2 (e86c870879, 2021-01-15)"
   id="svg8"
   version="1.1"
   viewBox="0 0 64 89"
   height="89mm"
   width="64mm">
  <defs
     id="defs2">
    <rect
       id="rect19"
       height="17.639789"
       width="26.459683"
       y="5.7462948"
       x="2.9399648" />
    <rect
       x="2.9399648"
       y="5.7462948"
       width="26.459683"
       height="17.639789"
       id="rect63" />
    <rect
       id="rect83"
       height="17.639789"
       width="26.459683"
       y="5.7462948"
       x="2.9399648" />
    <rect
       x="2.9399648"
       y="5.7462948"
       width="26.459683"
       height="17.639789"
       id="rect103" />
    <rect
       id="rect123"
       height="17.639789"
       width="26.459683"
       y="5.7462948"
       x="2.9399648" />
    <rect
       x="2.9399648"
       y="5.7462948"
       width="26.459683"
       height="17.639789"
       id="rect143" />
    <rect
       id="rect163"
       height="17.639789"
       width="26.459683"
       y="5.7462948"
       x="2.9399648" />
    <rect
       x="2.9399648"
       y="5.7462948"
       width="26.459683"
       height="17.639789"
       id="rect183" />
    <rect
       id="rect203"
       height="17.639789"
       width="26.459683"
       y="5.7462948"
       x="2.9399648" />
    <rect
       x="2.9399648"
       y="5.7462948"
       width="26.459683"
       height="17.639789"
       id="rect223" />
    <rect
       x="2.9399648"
       y="5.7462948"
       width="26.459683"
       height="17.639789"
       id="rect239" />
    <rect
       id="rect255"
       height="17.639789"
       width="26.459683"
       y="5.7462948"
       x="2.9399648" />
    <rect
       x="2.9399648"
       y="5.7462948"
       width="26.459683"
       height="17.639789"
       id="rect271" />
    <rect
       id="rect287"
       height="17.639789"
       width="26.459683"
       y="5.7462948"
       x="2.9399648" />
  </defs>
  <sodipodi:namedview
     inkscape:window-maximized="1"
     inkscape:window-y="-8"
     inkscape:window-x="1912"
     inkscape:window-height="1027"
     inkscape:window-width="1920"
     borderlayer="false"
     lock-margins="true"
     showgrid="false"
     inkscape:document-rotation="0"
     inkscape:current-layer="layer1"
     inkscape:document-units="mm"
     inkscape:cy="99.6849"
     inkscape:cx="56.2754"
     inkscape:zoom="1.4"
     inkscape:pageshadow="2"
     inkscape:pageopacity="0.0"
     borderopacity="1.0"
     bordercolor="#666666"
     pagecolor="#ffffff"
     id="base"
     inkscape:snap-nodes="false" />
  <metadata
     id="metadata5">
    <rdf:RDF>
      <cc:Work
         rdf:about="">
        <dc:format>image/svg+xml</dc:format>
        <dc:type
           rdf:resource="http://purl.org/dc/dcmitype/StillImage" />
        <dc:title />
      </cc:Work>
    </rdf:RDF>
  </metadata>
  <g
     inkscape:groupmode="layer"
     id="layer1"
     inkscape:label="Base"
     sodipodi:insensitive="true">
    <rect
       style="fill:#ffffff;stroke:none;stroke-width:0.264583"
       id="rect36"
       width="64"
       height="89"
       x="0"
       y="0" />
  </g>
  <g
     style="display:inline"
     inkscape:label="Letter"
     id="layer3"
     inkscape:groupmode="layer"
     sodipodi:insensitive="true">
    <g
       inkscape:label="Nine"
       id="g201"
       inkscape:groupmode="layer"
       style="display:inline"
       sodipodi:insensitive="true">
      <text
         style="font-size:16.9333px;line-height:1.25;font-family:sans-serif;word-spacing:0px;white-space:pre;shape-inside:url(#rect203);fill:#000000;"
         id="text191"
         xml:space="preserve" />
      <g
         aria-label="9"
         id="text195"
         style="font-size:16.9333px;line-height:1.25;font-family:sans-serif;word-spacing:0px;stroke-width:0.264583"
         transform="translate(0.32876)">
        <path
           d="m 5.62899,13.952 v -1.5214 q 0.62838,0.2977 1.2733,0.4548 0.64492,0.1571 1.26504,0.1571 1.65364,0 2.52177,-1.108 0.8765,-1.1162 1.0005,-3.38166 Q 11.21,9.26391 10.4742,9.64425 9.73829,10.0246 8.84532,10.0246 6.99324,10.0246 5.91011,8.90838 4.83524,7.7839 4.83524,5.84087 q 0,-1.90169 1.12448,-3.05097 1.12447,-1.14928 2.99309,-1.14928 2.14149,0 3.26599,1.64537 1.1327,1.63711 1.1327,4.76249 0,2.91872 -1.3891,4.66332 -1.3808,1.7363 -3.72066,1.7363 -0.62838,0 -1.2733,-0.124 Q 6.32352,14.2 5.62899,13.952 Z M 8.95281,8.71821 q 1.12449,0 1.77769,-0.76895 0.6614,-0.76894 0.6614,-2.10839 0,-1.33118 -0.6614,-2.10013 -0.6532,-0.77721 -1.77769,-0.77721 -1.12448,0 -1.78593,0.77721 -0.65319,0.76895 -0.65319,2.10013 0,1.33945 0.65319,2.10839 0.66145,0.76895 1.78593,0.76895 z"
           style="stroke-width:0.264583"
           id="path233" />
      </g>
      <g
         aria-label="9"
         transform="rotate(180,0.1498,0)"
         id="text199"
         style="font-size:16.9333px;line-height:1.25;font-family:sans-serif;word-spacing:0px;stroke-width:0.264583">
        <path
           d="m -58.545,-74.971 v -1.5214 q 0.6284,0.2977 1.2734,0.4548 0.6449,0.1571 1.265,0.1571 1.6536,0 2.5218,-1.108 0.8764,-1.1162 1.0004,-3.3817 -0.4795,0.7111 -1.2154,1.0914 -0.7359,0.3804 -1.6288,0.3804 -1.8521,0 -2.9352,-1.1162 -1.0749,-1.1245 -1.0749,-3.0675 0,-1.9017 1.1245,-3.051 1.1245,-1.1493 2.9931,-1.1493 2.1414,0 3.2659,1.6454 1.1328,1.6371 1.1328,4.7625 0,2.9187 -1.3891,4.6633 -1.3808,1.7363 -3.7207,1.7363 -0.6284,0 -1.2733,-0.124 -0.6449,-0.1241 -1.3395,-0.3721 z m 3.3239,-5.2338 q 1.1244,0 1.7776,-0.7689 0.6615,-0.769 0.6615,-2.1084 0,-1.3312 -0.6615,-2.1002 -0.6532,-0.7772 -1.7776,-0.7772 -1.1245,0 -1.786,0.7772 -0.6532,0.769 -0.6532,2.1002 0,1.3394 0.6532,2.1084 0.6615,0.7689 1.786,0.7689 z"
           style="stroke-width:0.264583"
           id="path236" />
      </g>
    </g>
    <g
       style="display:inline"
       inkscape:label="Clubs"
       id="layer6"
       inkscape:groupmode="layer"
       sodipodi:insensitive="true">
      <g
         style="display:inline"
         inkscape:label="Clubs Inner"
         id="layer7"
         inkscape:groupmode="layer">
        <g
           aria-label="♣"
           id="text441-6"
           style="font-size:25.4px;line-height:1.25;font-family:sans-serif;word-spacing:0px;display:inline;stroke-width:0.264583">
          <path
             d="m 32.4245,34.9108 q 2.6541,0 3.9067,2.8153 0.1612,0.645 0.1984,1.3395 0,1.4511 -1.4883,3.4354 l -0.7441,0.7442 h 0.037 q 0.9178,-0.3473 1.9596,-0.3473 h 0.2356 q 2.9518,0 4.1424,2.5053 0.2853,0.8185 0.2853,1.5627 0,2.5425 -2.5921,3.8323 -0.4961,0.1488 -1.3767,0.2232 -3.0014,0 -4.254,-3.3982 h -0.037 v 0.1116 q 0,4.254 1.017,5.6059 v 0.074 h -2.5797 l -0.074,-0.074 q 1.0542,-1.5875 1.0542,-5.7175 v -0.037 h -0.037 q -1.2402,3.4354 -4.2788,3.4354 -2.3689,0 -3.6339,-2.4928 -0.3101,-0.8434 -0.3101,-1.5627 0,-2.8898 3.051,-3.9192 0.8186,-0.1488 1.4511,-0.1488 h 0.1116 q 1.0666,0 2.034,0.3473 h 0.037 v -0.037 Q 29.4979,42.3278 29.1382,41.472 28.3941,40.1078 28.3941,39.1032 v -0.1736 q 0,-2.4929 2.6665,-3.7828 0.8806,-0.2356 1.3643,-0.2356 z"
             style="font-size:25.4px;stroke-width:0.264583"
             id="path224" />
        </g>
      </g>
      <g
         aria-label="♣"
         id="text441"
         style="font-size:16.9333px;line-height:1.25;font-family:sans-serif;word-spacing:0px;stroke-width:0.264583">
        <path
           d="m 9.45058,15.7852 q 1.76942,0 2.60452,1.8769 0.1075,0.43 0.1323,0.893 0,0.9674 -0.9922,2.2903 l -0.4961,0.4961 h 0.025 Q 11.3357,21.11 12.0303,21.11 h 0.1571 q 1.9678,0 2.7615,1.6701 0.1902,0.5457 0.1902,1.0418 0,1.695 -1.728,2.5549 -0.3308,0.099 -0.9178,0.1488 -2.0009,0 -2.83602,-2.2655 h -0.0248 v 0.074 q 0,2.836 0.67802,3.7372 v 0.05 H 8.59068 l -0.0496,-0.05 q 0.7028,-1.0583 0.7028,-3.8117 v -0.025 h -0.0248 q -0.82682,2.2903 -2.85254,2.2903 -1.57922,0 -2.42258,-1.6619 -0.20671,-0.5622 -0.20671,-1.0418 0,-1.9265 2.03398,-2.6127 0.5457,-0.099 0.96738,-0.099 h 0.0744 q 0.71106,0 1.35598,0.2315 h 0.0248 V 21.316 Q 7.49928,20.7296 7.2595,20.1591 6.76341,19.2496 6.76341,18.5799 v -0.1158 q 0,-1.6619 1.77766,-2.5218 0.58705,-0.1571 0.90951,-0.1571 z"
           style="stroke-width:0.264583"
           id="path227" />
      </g>
      <g
         aria-label="♣"
         transform="scale(-1)"
         id="text441-5"
         style="font-size:16.9333px;line-height:1.25;font-family:sans-serif;word-spacing:0px;stroke-width:0.264583">
        <path
           d="m -55.3611,-72.7676 q 1.7694,0 2.6045,1.8769 0.1075,0.43 0.1323,0.893 0,0.9674 -0.9922,2.2903 l -0.4961,0.4961 h 0.025 q 0.6118,-0.2315 1.3064,-0.2315 h 0.1571 q 1.9678,0 2.7616,1.6701 0.1901,0.5457 0.1901,1.0418 0,1.695 -1.728,2.5549 -0.3308,0.099 -0.9178,0.1488 -2.0009,0 -2.836,-2.2655 h -0.025 v 0.075 q 0,2.836 0.678,3.7372 v 0.05 h -1.7198 l -0.05,-0.05 q 0.7028,-1.0583 0.7028,-3.8117 v -0.025 h -0.025 q -0.8268,2.2903 -2.8526,2.2903 -1.5792,0 -2.4225,-1.6619 -0.2067,-0.5622 -0.2067,-1.0418 0,-1.9265 2.0339,-2.6127 0.5457,-0.099 0.9674,-0.099 h 0.074 q 0.7111,0 1.356,0.2315 h 0.025 v -0.025 q -0.6945,-0.5871 -0.9343,-1.1576 -0.4961,-0.9095 -0.4961,-1.5792 v -0.1158 q 0,-1.6619 1.7777,-2.5218 0.587,-0.1571 0.9095,-0.1571 z"
           style="stroke-width:0.264583"
           id="path230" />
      </g>
    </g>
  </g>
</svg>
