<?xml version="1.0" encoding="UTF-8" standalone="no"?>
<svg
   xmlns:dc="http://purl.org/dc/elements/1.1/"
   xmlns:cc="http://creativecommons.org/ns#"
   xmlns:rdf="http://www.w3.org/1999/02/22-rdf-syntax-ns#"
   xmlns:svg="http://www.w3.org/2000/svg"
   xmlns="http://www.w3.org/2000/svg"
   xmlns:sodipodi="http://sodipodi.sourceforge.net/DTD/sodipodi-0.dtd"
   xmlns:inkscape="http://www.inkscape.org/namespaces/inkscape"
   sodipodi:docname="s_3.svg"
   inkscape:version="1.0.2-2 (e86c870879, 2021-01-15)"
   id="svg8"
   version="1.1"
   viewBox="0 0 64 89"
   height="89mm"
   width="64mm">
  <defs
     id="defs2">
    <rect
       id="rect19"
       height="17.639789"
       width="26.459683"
       y="5.7462948"
       x="2.9399648" />
    <rect
       x="2.9399648"
       y="5.7462948"
       width="26.459683"
       height="17.639789"
       id="rect63" />
    <rect
       id="rect83"
       height="17.639789"
       width="26.459683"
       y="5.7462948"
       x="2.9399648" />
    <rect
       x="2.9399648"
       y="5.7462948"
       width="26.459683"
       height="17.639789"
       id="rect103" />
    <rect
       id="rect123"
       height="17.639789"
       width="26.459683"
       y="5.7462948"
       x="2.9399648" />
    <rect
       x="2.9399648"
       y="5.7462948"
       width="26.459683"
       height="17.639789"
       id="rect143" />
    <rect
       id="rect163"
       height="17.639789"
       width="26.459683"
       y="5.7462948"
       x="2.9399648" />
    <rect
       x="2.9399648"
       y="5.7462948"
       width="26.459683"
       height="17.639789"
       id="rect183" />
    <rect
       id="rect203"
       height="17.639789"
       width="26.459683"
       y="5.7462948"
       x="2.9399648" />
    <rect
       x="2.9399648"
       y="5.7462948"
       width="26.459683"
       height="17.639789"
       id="rect223" />
    <rect
       x="2.9399648"
       y="5.7462948"
       width="26.459683"
       height="17.639789"
       id="rect239" />
    <rect
       id="rect255"
       height="17.639789"
       width="26.459683"
       y="5.7462948"
       x="2.9399648" />
    <rect
       x="2.9399648"
       y="5.7462948"
       width="26.459683"
       height="17.639789"
       id="rect271" />
    <rect
       id="rect287"
       height="17.639789"
       width="26.459683"
       y="5.7462948"
       x="2.9399648" />
  </defs>
  <sodipodi:namedview
     inkscape:window-maximized="1"
     inkscape:window-y="-8"
     inkscape:window-x="1912"
     inkscape:window-height="1027"
     inkscape:window-width="1920"
     borderlayer="false"
     lock-margins="true"
     showgrid="false"
     inkscape:document-rotation="0"
     inkscape:current-layer="layer5"
     inkscape:document-units="mm"
     inkscape:cy="99.6849"
     inkscape:cx="56.2754"
     inkscape:zoom="1.4"
     inkscape:pageshadow="2"
     inkscape:pageopacity="0.0"
     borderopacity="1.0"
     bordercolor="#666666"
     pagecolor="#ffffff"
     id="base"
     inkscape:snap-nodes="false" />
  <metadata
     id="metadata5">
    <rdf:RDF>
      <cc:Work
         rdf:about="">
        <dc:format>image/svg+xml</dc:format>
        <dc:type
           rdf:resource="http://purl.org/dc/dcmitype/StillImage" />
        <dc:title />
      </cc:Work>
    </rdf:RDF>
  </metadata>
  <g
     style="display:inline"
     inkscape:label="Letter"
     id="layer3"
     inkscape:groupmode="layer">
    <g
       style="display:inline"
       inkscape:label="Base Colour (ALWAYS)"
       id="layer5"
       inkscape:groupmode="layer"
       sodipodi:insensitive="true">
      <rect
         style="display:inline;mix-blend-mode:multiply;fill:#ffffff;stroke:none;stroke-width:0.258164"
         id="rect418-4"
         width="62.3075"
         height="87.0354"
         x="1.18601"
         y="1.00226" />
    </g>
    <g
       inkscape:label="Three"
       id="g81"
       inkscape:groupmode="layer"
       style="display:inline"
       sodipodi:insensitive="true">
      <text
         style="font-size:16.9333px;line-height:1.25;font-family:sans-serif;word-spacing:0px;white-space:pre;shape-inside:url(#rect83);fill:#000000;"
         id="text71"
         xml:space="preserve" />
      <g
         aria-label="3"
         id="text75"
         style="font-size:16.9333px;line-height:1.25;font-family:sans-serif;word-spacing:0px;stroke-width:0.264583">
        <path
           d="m 10.6395,7.55239 q 1.1989,0.25631 1.8686,1.0666 0.678,0.81028 0.678,2.00091 0,1.8273 -1.2567,2.8277 -1.2568,1.0005 -3.5719,1.0005 -0.77721,0 -1.60404,-0.1571 -0.81855,-0.1488 -1.69498,-0.4548 v -1.6123 q 0.69453,0.4052 1.52135,0.6119 0.82682,0.2067 1.72806,0.2067 1.57096,0 2.38951,-0.6201 0.8268,-0.6202 0.8268,-1.8025 0,-1.09141 -0.7689,-1.70326 Q 9.9946,8.29653 8.63035,8.29653 H 7.19168 V 6.924 h 1.50481 q 1.23197,0 1.88511,-0.48782 0.6532,-0.49609 0.6532,-1.42213 0,-0.95085 -0.678,-1.45521 Q 9.88712,3.04621 8.63035,3.04621 7.94409,3.04621 7.15861,3.19504 6.37313,3.34387 5.43055,3.65806 V 2.16978 Q 6.3814,1.9052 7.20822,1.77291 8.04331,1.64062 8.77918,1.64062 q 1.90172,0 3.00962,0.86816 1.1079,0.85989 1.1079,2.33163 0,1.02526 -0.587,1.73633 -0.587,0.7028 -1.6702,0.97565 z"
           style="stroke-width:0.264583"
           id="path190" />
      </g>
      <g
         aria-label="3"
         transform="scale(-1)"
         id="text79"
         style="font-size:16.9333px;line-height:1.25;font-family:sans-serif;word-spacing:0px;stroke-width:0.264583">
        <path
           d="m -53.5344,-81.3706 q 1.1989,0.2563 1.8686,1.0666 0.678,0.8103 0.678,2.0009 0,1.8273 -1.2568,2.8277 -1.2567,1.0005 -3.5718,1.0005 -0.7773,0 -1.6041,-0.1571 -0.8185,-0.1488 -1.695,-0.4548 v -1.6123 q 0.6946,0.4052 1.5214,0.6119 0.8268,0.2067 1.728,0.2067 1.571,0 2.3896,-0.6201 0.8268,-0.6201 0.8268,-1.8025 0,-1.0914 -0.769,-1.7033 -0.7606,-0.6201 -2.1249,-0.6201 h -1.4387 v -1.3725 h 1.5049 q 1.2319,0 1.8851,-0.4878 0.6532,-0.4961 0.6532,-1.4222 0,-0.9508 -0.678,-1.4552 -0.6697,-0.5126 -1.9265,-0.5126 -0.6863,0 -1.4717,0.1488 -0.7855,0.1489 -1.7281,0.4631 v -1.4883 q 0.9509,-0.2646 1.7777,-0.3969 0.8351,-0.1323 1.5709,-0.1323 1.9017,0 3.0097,0.8682 1.1079,0.8599 1.1079,2.3316 0,1.0253 -0.587,1.7363 -0.5871,0.7028 -1.6702,0.9757 z"
           style="stroke-width:0.264583"
           id="path193" />
      </g>
    </g>
    <g
       inkscape:groupmode="layer"
       id="g484"
       inkscape:label="Spades"
       style="display:inline"
       sodipodi:insensitive="true">
      <g
         inkscape:groupmode="layer"
         id="g515"
         inkscape:label="Spades Inner"
         style="display:inline"
         sodipodi:insensitive="true">
        <g
           aria-label="♠"
           id="text513"
           style="font-size:25.4px;line-height:1.25;font-family:sans-serif;word-spacing:0px;display:inline;stroke-width:0.264583">
          <path
             d="m 32.4371,34.9108 c 0.7772,1.3808 2.0588,3.2122 3.8447,5.4942 1.9595,2.2986 2.9641,3.6835 3.0138,4.1548 0.3224,0.7028 0.4836,1.3849 0.4836,2.0464 v 0.4961 c 0,1.3808 -0.6697,2.4681 -2.0091,3.2618 -0.4383,0.1819 -0.922,0.2729 -1.4511,0.2729 -1.2733,0 -2.3027,-0.9136 -3.0882,-2.7409 h -0.5209 v 0.1488 c 0,2.3399 0.3431,4.1299 1.0294,5.3702 h -2.6665 v -0.074 c 0.7028,-1.2485 1.0542,-3.051 1.0542,-5.4074 l -0.037,-0.037 h -0.4713 l -0.5829,1.0914 c -0.7028,1.0997 -1.5792,1.6495 -2.6293,1.6495 -1.5461,0 -2.6334,-0.864 -3.2618,-2.5921 l -0.1118,-0.906 V 46.569 c 0,-1.5131 0.7731,-3.1088 2.3192,-4.7873 2.6045,-3.1915 4.2746,-5.4694 5.0105,-6.8337 l 0.037,-0.037 z"
             style="font-size:25.4px;stroke-width:0.264583"
             id="path166"
             sodipodi:nodetypes="cccsscsccscccccccsccscccc" />
        </g>
      </g>
      <g
         aria-label="♠"
         id="text478"
         style="font-size:16.9333px;line-height:1.25;font-family:sans-serif;word-spacing:0px;stroke-width:0.264583">
        <path
           d="m 9.45885,15.7852 q 0.77725,1.3808 2.56315,3.6628 1.9596,2.2986 2.0092,2.7699 0.3224,0.7028 0.3224,1.3643 v 0.3307 q 0,1.3808 -1.3394,2.1745 -0.4382,0.1819 -0.9674,0.1819 -1.2733,0 -2.05879,-1.8273 H 9.64075 v 0.099 q 0,2.3399 0.68625,3.5801 H 8.54934 v -0.05 q 0.7028,-1.2485 0.7028,-3.6049 l -0.0248,-0.025 h -0.3142 l -0.3886,0.7276 q -0.7028,1.0997 -1.75286,1.0997 -1.54616,0 -2.17454,-1.728 l -0.0744,-0.6036 v -0.3804 q 0,-1.513 1.54616,-3.1915 2.60449,-3.1915 3.34036,-4.5558 l 0.0248,-0.025 z"
           style="stroke-width:0.264583"
           id="path163" />
      </g>
      <g
         aria-label="♠"
         transform="scale(-1)"
         id="text482"
         style="font-size:16.9333px;line-height:1.25;font-family:sans-serif;word-spacing:0px;stroke-width:0.264583">
        <path
           d="m -55.3528,-72.7675 q 0.7772,1.3808 2.5631,3.6628 1.9596,2.2986 2.0092,2.7699 0.3224,0.7028 0.3224,1.3643 v 0.3307 q 0,1.3808 -1.3394,2.1745 -0.4382,0.1819 -0.9674,0.1819 -1.2733,0 -2.0588,-1.8273 h -0.3472 v 0.099 q 0,2.3399 0.6862,3.5801 h -1.7776 v -0.05 q 0.7028,-1.2485 0.7028,-3.605 l -0.025,-0.025 h -0.3141 l -0.3887,0.7276 q -0.7027,1.0997 -1.7528,1.0997 -1.5462,0 -2.1746,-1.728 l -0.074,-0.6036 v -0.3804 q 0,-1.513 1.5462,-3.1915 2.6045,-3.1915 3.3403,-4.5558 l 0.025,-0.025 z"
           style="stroke-width:0.264583"
           id="path169" />
      </g>
    </g>
  </g>
</svg>
