<?xml version="1.0" encoding="UTF-8" standalone="no"?>
<svg
   xmlns:dc="http://purl.org/dc/elements/1.1/"
   xmlns:cc="http://creativecommons.org/ns#"
   xmlns:rdf="http://www.w3.org/1999/02/22-rdf-syntax-ns#"
   xmlns:svg="http://www.w3.org/2000/svg"
   xmlns="http://www.w3.org/2000/svg"
   xmlns:sodipodi="http://sodipodi.sourceforge.net/DTD/sodipodi-0.dtd"
   xmlns:inkscape="http://www.inkscape.org/namespaces/inkscape"
   sodipodi:docname="s_5.svg"
   inkscape:version="1.0.2-2 (e86c870879, 2021-01-15)"
   id="svg8"
   version="1.1"
   viewBox="0 0 64 89"
   height="89mm"
   width="64mm">
  <defs
     id="defs2">
    <rect
       id="rect19"
       height="17.639789"
       width="26.459683"
       y="5.7462948"
       x="2.9399648" />
    <rect
       x="2.9399648"
       y="5.7462948"
       width="26.459683"
       height="17.639789"
       id="rect63" />
    <rect
       id="rect83"
       height="17.639789"
       width="26.459683"
       y="5.7462948"
       x="2.9399648" />
    <rect
       x="2.9399648"
       y="5.7462948"
       width="26.459683"
       height="17.639789"
       id="rect103" />
    <rect
       id="rect123"
       height="17.639789"
       width="26.459683"
       y="5.7462948"
       x="2.9399648" />
    <rect
       x="2.9399648"
       y="5.7462948"
       width="26.459683"
       height="17.639789"
       id="rect143" />
    <rect
       id="rect163"
       height="17.639789"
       width="26.459683"
       y="5.7462948"
       x="2.9399648" />
    <rect
       x="2.9399648"
       y="5.7462948"
       width="26.459683"
       height="17.639789"
       id="rect183" />
    <rect
       id="rect203"
       height="17.639789"
       width="26.459683"
       y="5.7462948"
       x="2.9399648" />
    <rect
       x="2.9399648"
       y="5.7462948"
       width="26.459683"
       height="17.639789"
       id="rect223" />
    <rect
       x="2.9399648"
       y="5.7462948"
       width="26.459683"
       height="17.639789"
       id="rect239" />
    <rect
       id="rect255"
       height="17.639789"
       width="26.459683"
       y="5.7462948"
       x="2.9399648" />
    <rect
       x="2.9399648"
       y="5.7462948"
       width="26.459683"
       height="17.639789"
       id="rect271" />
    <rect
       id="rect287"
       height="17.639789"
       width="26.459683"
       y="5.7462948"
       x="2.9399648" />
  </defs>
  <sodipodi:namedview
     inkscape:window-maximized="1"
     inkscape:window-y="-8"
     inkscape:window-x="1912"
     inkscape:window-height="1027"
     inkscape:window-width="1920"
     borderlayer="false"
     lock-margins="true"
     showgrid="false"
     inkscape:document-rotation="0"
     inkscape:current-layer="layer5"
     inkscape:document-units="mm"
     inkscape:cy="99.6849"
     inkscape:cx="56.2754"
     inkscape:zoom="1.4"
     inkscape:pageshadow="2"
     inkscape:pageopacity="0.0"
     borderopacity="1.0"
     bordercolor="#666666"
     pagecolor="#ffffff"
     id="base"
     inkscape:snap-nodes="false" />
  <metadata
     id="metadata5">
    <rdf:RDF>
      <cc:Work
         rdf:about="">
        <dc:format>image/svg+xml</dc:format>
        <dc:type
           rdf:resource="http://purl.org/dc/dcmitype/StillImage" />
        <dc:title />
      </cc:Work>
    </rdf:RDF>
  </metadata>
  <g
     style="display:inline"
     inkscape:label="Letter"
     id="layer3"
     inkscape:groupmode="layer">
    <g
       style="display:inline"
       inkscape:label="Base Colour (ALWAYS)"
       id="layer5"
       inkscape:groupmode="layer"
       sodipodi:insensitive="true">
      <rect
         style="display:inline;mix-blend-mode:multiply;fill:#ffffff;stroke:none;stroke-width:0.258164"
         id="rect418-4"
         width="62.3075"
         height="87.0354"
         x="1.18601"
         y="1.00226" />
    </g>
    <g
       inkscape:label="Five"
       id="g121"
       inkscape:groupmode="layer"
       style="display:inline"
       sodipodi:insensitive="true">
      <text
         style="font-size:16.9333px;line-height:1.25;font-family:sans-serif;word-spacing:0px;white-space:pre;shape-inside:url(#rect123);fill:#000000;"
         id="text111"
         xml:space="preserve" />
      <g
         aria-label="5"
         id="text115"
         style="font-size:16.9333px;line-height:1.25;font-family:sans-serif;word-spacing:0px;stroke-width:0.264583"
         transform="translate(0.75815)">
        <path
           d="M 5.06675,1.86386 H 11.6234 V 3.26945 H 6.59636 v 3.02617 q 0.36381,-0.12402 0.72761,-0.1819 0.3638,-0.0661 0.7276,-0.0661 2.06703,0 3.27423,1.13275 1.2071,1.13274 1.2071,3.06743 0,1.9927 -1.2402,3.1006 -1.2402,1.0997 -3.49744,1.0997 -0.77722,0 -1.5875,-0.1323 -0.80202,-0.1323 -1.66191,-0.3969 v -1.6784 q 0.74414,0.4051 1.53789,0.6035 0.79374,0.1985 1.67844,0.1985 1.4304,0 2.26552,-0.7524 0.8351,-0.7524 0.8351,-2.0423 0,-1.28977 -0.8351,-2.04217 Q 9.19258,7.45317 7.76218,7.45317 7.09246,7.45317 6.42273,7.602 5.76127,7.75083 5.06675,8.06502 Z"
           style="stroke-width:0.264583"
           id="path178" />
      </g>
      <g
         aria-label="5"
         transform="rotate(180,-0.1645,0)"
         id="text119"
         style="font-size:16.9333px;line-height:1.25;font-family:sans-serif;word-spacing:0px;stroke-width:0.264583">
        <path
           d="m -59.1072,-87.0591 h 6.5567 v 1.4056 h -5.0271 v 3.0261 q 0.3638,-0.124 0.7276,-0.1819 0.3638,-0.066 0.7276,-0.066 2.0671,0 3.2742,1.1327 1.2072,1.1328 1.2072,3.0675 0,1.9927 -1.2403,3.1006 -1.2402,1.0997 -3.4974,1.0997 -0.7772,0 -1.5875,-0.1323 -0.802,-0.1323 -1.6619,-0.3969 v -1.6784 q 0.7441,0.4051 1.5379,0.6035 0.7937,0.1985 1.6784,0.1985 1.4304,0 2.2655,-0.7524 0.8351,-0.7524 0.8351,-2.0423 0,-1.2898 -0.8351,-2.0422 -0.8351,-0.7524 -2.2655,-0.7524 -0.6697,0 -1.3394,0.1488 -0.6615,0.1488 -1.356,0.463 z"
           style="stroke-width:0.264583"
           id="path181" />
      </g>
    </g>
    <g
       inkscape:groupmode="layer"
       id="g484"
       inkscape:label="Spades"
       style="display:inline"
       sodipodi:insensitive="true">
      <g
         inkscape:groupmode="layer"
         id="g515"
         inkscape:label="Spades Inner"
         style="display:inline"
         sodipodi:insensitive="true">
        <g
           aria-label="♠"
           id="text513"
           style="font-size:25.4px;line-height:1.25;font-family:sans-serif;word-spacing:0px;display:inline;stroke-width:0.264583">
          <path
             d="m 32.4371,34.9108 c 0.7772,1.3808 2.0588,3.2122 3.8447,5.4942 1.9595,2.2986 2.9641,3.6835 3.0138,4.1548 0.3224,0.7028 0.4836,1.3849 0.4836,2.0464 v 0.4961 c 0,1.3808 -0.6697,2.4681 -2.0091,3.2618 -0.4383,0.1819 -0.922,0.2729 -1.4511,0.2729 -1.2733,0 -2.3027,-0.9136 -3.0882,-2.7409 h -0.5209 v 0.1488 c 0,2.3399 0.3431,4.1299 1.0294,5.3702 h -2.6665 v -0.074 c 0.7028,-1.2485 1.0542,-3.051 1.0542,-5.4074 l -0.037,-0.037 h -0.4713 l -0.5829,1.0914 c -0.7028,1.0997 -1.5792,1.6495 -2.6293,1.6495 -1.5461,0 -2.6334,-0.864 -3.2618,-2.5921 l -0.1118,-0.906 V 46.569 c 0,-1.5131 0.7731,-3.1088 2.3192,-4.7873 2.6045,-3.1915 4.2746,-5.4694 5.0105,-6.8337 l 0.037,-0.037 z"
             style="font-size:25.4px;stroke-width:0.264583"
             id="path166"
             sodipodi:nodetypes="cccsscsccscccccccsccscccc" />
        </g>
      </g>
      <g
         aria-label="♠"
         id="text478"
         style="font-size:16.9333px;line-height:1.25;font-family:sans-serif;word-spacing:0px;stroke-width:0.264583">
        <path
           d="m 9.45885,15.7852 q 0.77725,1.3808 2.56315,3.6628 1.9596,2.2986 2.0092,2.7699 0.3224,0.7028 0.3224,1.3643 v 0.3307 q 0,1.3808 -1.3394,2.1745 -0.4382,0.1819 -0.9674,0.1819 -1.2733,0 -2.05879,-1.8273 H 9.64075 v 0.099 q 0,2.3399 0.68625,3.5801 H 8.54934 v -0.05 q 0.7028,-1.2485 0.7028,-3.6049 l -0.0248,-0.025 h -0.3142 l -0.3886,0.7276 q -0.7028,1.0997 -1.75286,1.0997 -1.54616,0 -2.17454,-1.728 l -0.0744,-0.6036 v -0.3804 q 0,-1.513 1.54616,-3.1915 2.60449,-3.1915 3.34036,-4.5558 l 0.0248,-0.025 z"
           style="stroke-width:0.264583"
           id="path163" />
      </g>
      <g
         aria-label="♠"
         transform="scale(-1)"
         id="text482"
         style="font-size:16.9333px;line-height:1.25;font-family:sans-serif;word-spacing:0px;stroke-width:0.264583">
        <path
           d="m -55.3528,-72.7675 q 0.7772,1.3808 2.5631,3.6628 1.9596,2.2986 2.0092,2.7699 0.3224,0.7028 0.3224,1.3643 v 0.3307 q 0,1.3808 -1.3394,2.1745 -0.4382,0.1819 -0.9674,0.1819 -1.2733,0 -2.0588,-1.8273 h -0.3472 v 0.099 q 0,2.3399 0.6862,3.5801 h -1.7776 v -0.05 q 0.7028,-1.2485 0.7028,-3.605 l -0.025,-0.025 h -0.3141 l -0.3887,0.7276 q -0.7027,1.0997 -1.7528,1.0997 -1.5462,0 -2.1746,-1.728 l -0.074,-0.6036 v -0.3804 q 0,-1.513 1.5462,-3.1915 2.6045,-3.1915 3.3403,-4.5558 l 0.025,-0.025 z"
           style="stroke-width:0.264583"
           id="path169" />
      </g>
    </g>
  </g>
</svg>
