<?xml version="1.0" encoding="UTF-8" standalone="no"?>
<svg
   xmlns:dc="http://purl.org/dc/elements/1.1/"
   xmlns:cc="http://creativecommons.org/ns#"
   xmlns:rdf="http://www.w3.org/1999/02/22-rdf-syntax-ns#"
   xmlns:svg="http://www.w3.org/2000/svg"
   xmlns="http://www.w3.org/2000/svg"
   xmlns:sodipodi="http://sodipodi.sourceforge.net/DTD/sodipodi-0.dtd"
   xmlns:inkscape="http://www.inkscape.org/namespaces/inkscape"
   sodipodi:docname="s_8.svg"
   inkscape:version="1.0.2-2 (e86c870879, 2021-01-15)"
   id="svg8"
   version="1.1"
   viewBox="0 0 64 89"
   height="89mm"
   width="64mm">
  <defs
     id="defs2">
    <rect
       id="rect19"
       height="17.639789"
       width="26.459683"
       y="5.7462948"
       x="2.9399648" />
    <rect
       x="2.9399648"
       y="5.7462948"
       width="26.459683"
       height="17.639789"
       id="rect63" />
    <rect
       id="rect83"
       height="17.639789"
       width="26.459683"
       y="5.7462948"
       x="2.9399648" />
    <rect
       x="2.9399648"
       y="5.7462948"
       width="26.459683"
       height="17.639789"
       id="rect103" />
    <rect
       id="rect123"
       height="17.639789"
       width="26.459683"
       y="5.7462948"
       x="2.9399648" />
    <rect
       x="2.9399648"
       y="5.7462948"
       width="26.459683"
       height="17.639789"
       id="rect143" />
    <rect
       id="rect163"
       height="17.639789"
       width="26.459683"
       y="5.7462948"
       x="2.9399648" />
    <rect
       x="2.9399648"
       y="5.7462948"
       width="26.459683"
       height="17.639789"
       id="rect183" />
    <rect
       id="rect203"
       height="17.639789"
       width="26.459683"
       y="5.7462948"
       x="2.9399648" />
    <rect
       x="2.9399648"
       y="5.7462948"
       width="26.459683"
       height="17.639789"
       id="rect223" />
    <rect
       x="2.9399648"
       y="5.7462948"
       width="26.459683"
       height="17.639789"
       id="rect239" />
    <rect
       id="rect255"
       height="17.639789"
       width="26.459683"
       y="5.7462948"
       x="2.9399648" />
    <rect
       x="2.9399648"
       y="5.7462948"
       width="26.459683"
       height="17.639789"
       id="rect271" />
    <rect
       id="rect287"
       height="17.639789"
       width="26.459683"
       y="5.7462948"
       x="2.9399648" />
  </defs>
  <sodipodi:namedview
     inkscape:window-maximized="1"
     inkscape:window-y="-8"
     inkscape:window-x="1912"
     inkscape:window-height="1027"
     inkscape:window-width="1920"
     borderlayer="false"
     lock-margins="true"
     showgrid="false"
     inkscape:document-rotation="0"
     inkscape:current-layer="layer5"
     inkscape:document-units="mm"
     inkscape:cy="99.6849"
     inkscape:cx="56.2754"
     inkscape:zoom="1.4"
     inkscape:pageshadow="2"
     inkscape:pageopacity="0.0"
     borderopacity="1.0"
     bordercolor="#666666"
     pagecolor="#ffffff"
     id="base"
     inkscape:snap-nodes="false" />
  <metadata
     id="metadata5">
    <rdf:RDF>
      <cc:Work
         rdf:about="">
        <dc:format>image/svg+xml</dc:format>
        <dc:type
           rdf:resource="http://purl.org/dc/dcmitype/StillImage" />
        <dc:title />
      </cc:Work>
    </rdf:RDF>
  </metadata>
  <g
     style="display:inline"
     inkscape:label="Letter"
     id="layer3"
     inkscape:groupmode="layer"
     sodipodi:insensitive="true">
    <g
       style="display:inline"
       inkscape:label="Base Colour (ALWAYS)"
       id="layer5"
       inkscape:groupmode="layer"
       sodipodi:insensitive="true">
      <rect
         style="display:inline;mix-blend-mode:multiply;fill:#ffffff;stroke:none;stroke-width:0.258164"
         id="rect418-4"
         width="62.3075"
         height="87.0354"
         x="1.18601"
         y="1.00226" />
    </g>
    <g
       style="display:inline"
       inkscape:groupmode="layer"
       id="g181"
       inkscape:label="Eight"
       sodipodi:insensitive="true">
      <text
         xml:space="preserve"
         id="text171"
         style="font-size:16.9333px;line-height:1.25;font-family:sans-serif;word-spacing:0px;white-space:pre;shape-inside:url(#rect183);fill:#000000;" />
      <g
         aria-label="8"
         id="text175"
         style="font-size:16.9333px;line-height:1.25;font-family:sans-serif;word-spacing:0px;stroke-width:0.264583"
         transform="translate(0.75825)">
        <path
           d="m 8.62208,8.34614 q -1.19063,0 -1.87689,0.63665 -0.67799,0.63665 -0.67799,1.75291 0,1.1162 0.67799,1.7528 0.68626,0.6367 1.87689,0.6367 1.19062,0 1.87692,-0.6367 0.6862,-0.6449 0.6862,-1.7528 0,-1.11626 -0.6862,-1.75291 Q 9.82097,8.34614 8.62208,8.34614 Z M 6.9519,7.63507 Q 5.87703,7.37049 5.27345,6.63462 4.67814,5.89875 4.67814,4.84041 q 0,-1.48001 1.05006,-2.3399 1.05833,-0.85989 2.89388,-0.85989 1.84382,0 2.89392,0.85989 1.05,0.85989 1.05,2.3399 0,1.05834 -0.6036,1.79421 -0.5953,0.73587 -1.6619,1.00045 1.2072,0.28112 1.8769,1.09967 0.678,0.81856 0.678,2.00096 0,1.7942 -1.0997,2.7533 -1.0914,0.9591 -3.13362,0.9591 -2.04225,0 -3.14192,-0.9591 -1.09141,-0.9591 -1.09141,-2.7533 0,-1.1824 0.678,-2.00096 Q 5.74474,7.91619 6.9519,7.63507 Z M 6.34005,4.99751 q 0,0.95911 0.59531,1.49655 0.60358,0.53743 1.68672,0.53743 1.07486,0 1.67842,-0.53743 0.6119,-0.53744 0.6119,-1.49655 0,-0.95911 -0.6119,-1.49655 Q 9.69694,2.96353 8.62208,2.96353 7.53894,2.96353 6.93536,3.50096 6.34005,4.0384 6.34005,4.99751 Z"
           style="stroke-width:0.264583"
           id="path208" />
      </g>
      <g
         aria-label="8"
         transform="rotate(180,2e-4,0)"
         id="text179"
         style="font-size:16.9333px;line-height:1.25;font-family:sans-serif;word-spacing:0px;stroke-width:0.264583">
        <path
           d="m -55.5519,-80.5769 q -1.1906,0 -1.8769,0.6367 -0.678,0.6366 -0.678,1.7529 0,1.1162 0.678,1.7528 0.6863,0.6367 1.8769,0.6367 1.1906,0 1.8769,-0.6367 0.6863,-0.6449 0.6863,-1.7528 0,-1.1163 -0.6863,-1.7529 -0.678,-0.6367 -1.8769,-0.6367 z m -1.6702,-0.711 q -1.0748,-0.2646 -1.6784,-1.0005 -0.5953,-0.7359 -0.5953,-1.7942 0,-1.48 1.05,-2.3399 1.0584,-0.8599 2.8939,-0.8599 1.8438,0 2.8939,0.8599 1.05,0.8599 1.05,2.3399 0,1.0583 -0.6035,1.7942 -0.5953,0.7359 -1.6619,1.0005 1.2071,0.2811 1.8768,1.0996 0.678,0.8186 0.678,2.001 0,1.7942 -1.0996,2.7533 -1.0914,0.9591 -3.1337,0.9591 -2.0422,0 -3.1419,-0.9591 -1.0914,-0.9591 -1.0914,-2.7533 0,-1.1824 0.678,-2.001 0.678,-0.8185 1.8851,-1.0996 z m -0.6118,-2.6376 q 0,0.9591 0.5953,1.4966 0.6036,0.5374 1.6867,0.5374 1.0749,0 1.6785,-0.5374 0.6118,-0.5375 0.6118,-1.4966 0,-0.9591 -0.6118,-1.4965 -0.6036,-0.5375 -1.6785,-0.5375 -1.0831,0 -1.6867,0.5375 -0.5953,0.5374 -0.5953,1.4965 z"
           style="stroke-width:0.264583"
           id="path211" />
      </g>
    </g>
    <g
       inkscape:groupmode="layer"
       id="g484"
       inkscape:label="Spades"
       style="display:inline"
       sodipodi:insensitive="true">
      <g
         inkscape:groupmode="layer"
         id="g515"
         inkscape:label="Spades Inner"
         style="display:inline"
         sodipodi:insensitive="true">
        <g
           aria-label="♠"
           id="text513"
           style="font-size:25.4px;line-height:1.25;font-family:sans-serif;word-spacing:0px;display:inline;stroke-width:0.264583">
          <path
             d="m 32.4371,34.9108 c 0.7772,1.3808 2.0588,3.2122 3.8447,5.4942 1.9595,2.2986 2.9641,3.6835 3.0138,4.1548 0.3224,0.7028 0.4836,1.3849 0.4836,2.0464 v 0.4961 c 0,1.3808 -0.6697,2.4681 -2.0091,3.2618 -0.4383,0.1819 -0.922,0.2729 -1.4511,0.2729 -1.2733,0 -2.3027,-0.9136 -3.0882,-2.7409 h -0.5209 v 0.1488 c 0,2.3399 0.3431,4.1299 1.0294,5.3702 h -2.6665 v -0.074 c 0.7028,-1.2485 1.0542,-3.051 1.0542,-5.4074 l -0.037,-0.037 h -0.4713 l -0.5829,1.0914 c -0.7028,1.0997 -1.5792,1.6495 -2.6293,1.6495 -1.5461,0 -2.6334,-0.864 -3.2618,-2.5921 l -0.1118,-0.906 V 46.569 c 0,-1.5131 0.7731,-3.1088 2.3192,-4.7873 2.6045,-3.1915 4.2746,-5.4694 5.0105,-6.8337 l 0.037,-0.037 z"
             style="font-size:25.4px;stroke-width:0.264583"
             id="path166"
             sodipodi:nodetypes="cccsscsccscccccccsccscccc" />
        </g>
      </g>
      <g
         aria-label="♠"
         id="text478"
         style="font-size:16.9333px;line-height:1.25;font-family:sans-serif;word-spacing:0px;stroke-width:0.264583">
        <path
           d="m 9.45885,15.7852 q 0.77725,1.3808 2.56315,3.6628 1.9596,2.2986 2.0092,2.7699 0.3224,0.7028 0.3224,1.3643 v 0.3307 q 0,1.3808 -1.3394,2.1745 -0.4382,0.1819 -0.9674,0.1819 -1.2733,0 -2.05879,-1.8273 H 9.64075 v 0.099 q 0,2.3399 0.68625,3.5801 H 8.54934 v -0.05 q 0.7028,-1.2485 0.7028,-3.6049 l -0.0248,-0.025 h -0.3142 l -0.3886,0.7276 q -0.7028,1.0997 -1.75286,1.0997 -1.54616,0 -2.17454,-1.728 l -0.0744,-0.6036 v -0.3804 q 0,-1.513 1.54616,-3.1915 2.60449,-3.1915 3.34036,-4.5558 l 0.0248,-0.025 z"
           style="stroke-width:0.264583"
           id="path163" />
      </g>
      <g
         aria-label="♠"
         transform="scale(-1)"
         id="text482"
         style="font-size:16.9333px;line-height:1.25;font-family:sans-serif;word-spacing:0px;stroke-width:0.264583">
        <path
           d="m -55.3528,-72.7675 q 0.7772,1.3808 2.5631,3.6628 1.9596,2.2986 2.0092,2.7699 0.3224,0.7028 0.3224,1.3643 v 0.3307 q 0,1.3808 -1.3394,2.1745 -0.4382,0.1819 -0.9674,0.1819 -1.2733,0 -2.0588,-1.8273 h -0.3472 v 0.099 q 0,2.3399 0.6862,3.5801 h -1.7776 v -0.05 q 0.7028,-1.2485 0.7028,-3.605 l -0.025,-0.025 h -0.3141 l -0.3887,0.7276 q -0.7027,1.0997 -1.7528,1.0997 -1.5462,0 -2.1746,-1.728 l -0.074,-0.6036 v -0.3804 q 0,-1.513 1.5462,-3.1915 2.6045,-3.1915 3.3403,-4.5558 l 0.025,-0.025 z"
           style="stroke-width:0.264583"
           id="path169" />
      </g>
    </g>
  </g>
</svg>
