<?xml version="1.0" encoding="UTF-8" standalone="no"?>
<svg
   xmlns:dc="http://purl.org/dc/elements/1.1/"
   xmlns:cc="http://creativecommons.org/ns#"
   xmlns:rdf="http://www.w3.org/1999/02/22-rdf-syntax-ns#"
   xmlns:svg="http://www.w3.org/2000/svg"
   xmlns="http://www.w3.org/2000/svg"
   xmlns:sodipodi="http://sodipodi.sourceforge.net/DTD/sodipodi-0.dtd"
   xmlns:inkscape="http://www.inkscape.org/namespaces/inkscape"
   sodipodi:docname="s_9.svg"
   inkscape:version="1.0.2-2 (e86c870879, 2021-01-15)"
   id="svg8"
   version="1.1"
   viewBox="0 0 64 89"
   height="89mm"
   width="64mm">
  <defs
     id="defs2">
    <rect
       id="rect19"
       height="17.639789"
       width="26.459683"
       y="5.7462948"
       x="2.9399648" />
    <rect
       x="2.9399648"
       y="5.7462948"
       width="26.459683"
       height="17.639789"
       id="rect63" />
    <rect
       id="rect83"
       height="17.639789"
       width="26.459683"
       y="5.7462948"
       x="2.9399648" />
    <rect
       x="2.9399648"
       y="5.7462948"
       width="26.459683"
       height="17.639789"
       id="rect103" />
    <rect
       id="rect123"
       height="17.639789"
       width="26.459683"
       y="5.7462948"
       x="2.9399648" />
    <rect
       x="2.9399648"
       y="5.7462948"
       width="26.459683"
       height="17.639789"
       id="rect143" />
    <rect
       id="rect163"
       height="17.639789"
       width="26.459683"
       y="5.7462948"
       x="2.9399648" />
    <rect
       x="2.9399648"
       y="5.7462948"
       width="26.459683"
       height="17.639789"
       id="rect183" />
    <rect
       id="rect203"
       height="17.639789"
       width="26.459683"
       y="5.7462948"
       x="2.9399648" />
    <rect
       x="2.9399648"
       y="5.7462948"
       width="26.459683"
       height="17.639789"
       id="rect223" />
    <rect
       x="2.9399648"
       y="5.7462948"
       width="26.459683"
       height="17.639789"
       id="rect239" />
    <rect
       id="rect255"
       height="17.639789"
       width="26.459683"
       y="5.7462948"
       x="2.9399648" />
    <rect
       x="2.9399648"
       y="5.7462948"
       width="26.459683"
       height="17.639789"
       id="rect271" />
    <rect
       id="rect287"
       height="17.639789"
       width="26.459683"
       y="5.7462948"
       x="2.9399648" />
  </defs>
  <sodipodi:namedview
     inkscape:window-maximized="1"
     inkscape:window-y="-8"
     inkscape:window-x="1912"
     inkscape:window-height="1027"
     inkscape:window-width="1920"
     borderlayer="false"
     lock-margins="true"
     showgrid="false"
     inkscape:document-rotation="0"
     inkscape:current-layer="layer5"
     inkscape:document-units="mm"
     inkscape:cy="99.6849"
     inkscape:cx="56.2754"
     inkscape:zoom="1.4"
     inkscape:pageshadow="2"
     inkscape:pageopacity="0.0"
     borderopacity="1.0"
     bordercolor="#666666"
     pagecolor="#ffffff"
     id="base"
     inkscape:snap-nodes="false" />
  <metadata
     id="metadata5">
    <rdf:RDF>
      <cc:Work
         rdf:about="">
        <dc:format>image/svg+xml</dc:format>
        <dc:type
           rdf:resource="http://purl.org/dc/dcmitype/StillImage" />
        <dc:title />
      </cc:Work>
    </rdf:RDF>
  </metadata>
  <g
     style="display:inline"
     inkscape:label="Letter"
     id="layer3"
     inkscape:groupmode="layer"
     sodipodi:insensitive="true">
    <g
       style="display:inline"
       inkscape:label="Base Colour (ALWAYS)"
       id="layer5"
       inkscape:groupmode="layer"
       sodipodi:insensitive="true">
      <rect
         style="display:inline;mix-blend-mode:multiply;fill:#ffffff;stroke:none;stroke-width:0.258164"
         id="rect418-4"
         width="62.3075"
         height="87.0354"
         x="1.18601"
         y="1.00226" />
    </g>
    <g
       inkscape:label="Nine"
       id="g201"
       inkscape:groupmode="layer"
       style="display:inline"
       sodipodi:insensitive="true">
      <text
         style="font-size:16.9333px;line-height:1.25;font-family:sans-serif;word-spacing:0px;white-space:pre;shape-inside:url(#rect203);fill:#000000;"
         id="text191"
         xml:space="preserve" />
      <g
         aria-label="9"
         id="text195"
         style="font-size:16.9333px;line-height:1.25;font-family:sans-serif;word-spacing:0px;stroke-width:0.264583"
         transform="translate(0.32876)">
        <path
           d="m 5.62899,13.952 v -1.5214 q 0.62838,0.2977 1.2733,0.4548 0.64492,0.1571 1.26504,0.1571 1.65364,0 2.52177,-1.108 0.8765,-1.1162 1.0005,-3.38166 Q 11.21,9.26391 10.4742,9.64425 9.73829,10.0246 8.84532,10.0246 6.99324,10.0246 5.91011,8.90838 4.83524,7.7839 4.83524,5.84087 q 0,-1.90169 1.12448,-3.05097 1.12447,-1.14928 2.99309,-1.14928 2.14149,0 3.26599,1.64537 1.1327,1.63711 1.1327,4.76249 0,2.91872 -1.3891,4.66332 -1.3808,1.7363 -3.72066,1.7363 -0.62838,0 -1.2733,-0.124 Q 6.32352,14.2 5.62899,13.952 Z M 8.95281,8.71821 q 1.12449,0 1.77769,-0.76895 0.6614,-0.76894 0.6614,-2.10839 0,-1.33118 -0.6614,-2.10013 -0.6532,-0.77721 -1.77769,-0.77721 -1.12448,0 -1.78593,0.77721 -0.65319,0.76895 -0.65319,2.10013 0,1.33945 0.65319,2.10839 0.66145,0.76895 1.78593,0.76895 z"
           style="stroke-width:0.264583"
           id="path233" />
      </g>
      <g
         aria-label="9"
         transform="rotate(180,0.1498,0)"
         id="text199"
         style="font-size:16.9333px;line-height:1.25;font-family:sans-serif;word-spacing:0px;stroke-width:0.264583">
        <path
           d="m -58.545,-74.971 v -1.5214 q 0.6284,0.2977 1.2734,0.4548 0.6449,0.1571 1.265,0.1571 1.6536,0 2.5218,-1.108 0.8764,-1.1162 1.0004,-3.3817 -0.4795,0.7111 -1.2154,1.0914 -0.7359,0.3804 -1.6288,0.3804 -1.8521,0 -2.9352,-1.1162 -1.0749,-1.1245 -1.0749,-3.0675 0,-1.9017 1.1245,-3.051 1.1245,-1.1493 2.9931,-1.1493 2.1414,0 3.2659,1.6454 1.1328,1.6371 1.1328,4.7625 0,2.9187 -1.3891,4.6633 -1.3808,1.7363 -3.7207,1.7363 -0.6284,0 -1.2733,-0.124 -0.6449,-0.1241 -1.3395,-0.3721 z m 3.3239,-5.2338 q 1.1244,0 1.7776,-0.7689 0.6615,-0.769 0.6615,-2.1084 0,-1.3312 -0.6615,-2.1002 -0.6532,-0.7772 -1.7776,-0.7772 -1.1245,0 -1.786,0.7772 -0.6532,0.769 -0.6532,2.1002 0,1.3394 0.6532,2.1084 0.6615,0.7689 1.786,0.7689 z"
           style="stroke-width:0.264583"
           id="path236" />
      </g>
    </g>
    <g
       inkscape:groupmode="layer"
       id="g484"
       inkscape:label="Spades"
       style="display:inline"
       sodipodi:insensitive="true">
      <g
         inkscape:groupmode="layer"
         id="g515"
         inkscape:label="Spades Inner"
         style="display:inline"
         sodipodi:insensitive="true">
        <g
           aria-label="♠"
           id="text513"
           style="font-size:25.4px;line-height:1.25;font-family:sans-serif;word-spacing:0px;display:inline;stroke-width:0.264583">
          <path
             d="m 32.4371,34.9108 c 0.7772,1.3808 2.0588,3.2122 3.8447,5.4942 1.9595,2.2986 2.9641,3.6835 3.0138,4.1548 0.3224,0.7028 0.4836,1.3849 0.4836,2.0464 v 0.4961 c 0,1.3808 -0.6697,2.4681 -2.0091,3.2618 -0.4383,0.1819 -0.922,0.2729 -1.4511,0.2729 -1.2733,0 -2.3027,-0.9136 -3.0882,-2.7409 h -0.5209 v 0.1488 c 0,2.3399 0.3431,4.1299 1.0294,5.3702 h -2.6665 v -0.074 c 0.7028,-1.2485 1.0542,-3.051 1.0542,-5.4074 l -0.037,-0.037 h -0.4713 l -0.5829,1.0914 c -0.7028,1.0997 -1.5792,1.6495 -2.6293,1.6495 -1.5461,0 -2.6334,-0.864 -3.2618,-2.5921 l -0.1118,-0.906 V 46.569 c 0,-1.5131 0.7731,-3.1088 2.3192,-4.7873 2.6045,-3.1915 4.2746,-5.4694 5.0105,-6.8337 l 0.037,-0.037 z"
             style="font-size:25.4px;stroke-width:0.264583"
             id="path166"
             sodipodi:nodetypes="cccsscsccscccccccsccscccc" />
        </g>
      </g>
      <g
         aria-label="♠"
         id="text478"
         style="font-size:16.9333px;line-height:1.25;font-family:sans-serif;word-spacing:0px;stroke-width:0.264583">
        <path
           d="m 9.45885,15.7852 q 0.77725,1.3808 2.56315,3.6628 1.9596,2.2986 2.0092,2.7699 0.3224,0.7028 0.3224,1.3643 v 0.3307 q 0,1.3808 -1.3394,2.1745 -0.4382,0.1819 -0.9674,0.1819 -1.2733,0 -2.05879,-1.8273 H 9.64075 v 0.099 q 0,2.3399 0.68625,3.5801 H 8.54934 v -0.05 q 0.7028,-1.2485 0.7028,-3.6049 l -0.0248,-0.025 h -0.3142 l -0.3886,0.7276 q -0.7028,1.0997 -1.75286,1.0997 -1.54616,0 -2.17454,-1.728 l -0.0744,-0.6036 v -0.3804 q 0,-1.513 1.54616,-3.1915 2.60449,-3.1915 3.34036,-4.5558 l 0.0248,-0.025 z"
           style="stroke-width:0.264583"
           id="path163" />
      </g>
      <g
         aria-label="♠"
         transform="scale(-1)"
         id="text482"
         style="font-size:16.9333px;line-height:1.25;font-family:sans-serif;word-spacing:0px;stroke-width:0.264583">
        <path
           d="m -55.3528,-72.7675 q 0.7772,1.3808 2.5631,3.6628 1.9596,2.2986 2.0092,2.7699 0.3224,0.7028 0.3224,1.3643 v 0.3307 q 0,1.3808 -1.3394,2.1745 -0.4382,0.1819 -0.9674,0.1819 -1.2733,0 -2.0588,-1.8273 h -0.3472 v 0.099 q 0,2.3399 0.6862,3.5801 h -1.7776 v -0.05 q 0.7028,-1.2485 0.7028,-3.605 l -0.025,-0.025 h -0.3141 l -0.3887,0.7276 q -0.7027,1.0997 -1.7528,1.0997 -1.5462,0 -2.1746,-1.728 l -0.074,-0.6036 v -0.3804 q 0,-1.513 1.5462,-3.1915 2.6045,-3.1915 3.3403,-4.5558 l 0.025,-0.025 z"
           style="stroke-width:0.264583"
           id="path169" />
      </g>
    </g>
  </g>
</svg>
