<?xml version="1.0" encoding="UTF-8" standalone="no"?>
<svg
   xmlns:dc="http://purl.org/dc/elements/1.1/"
   xmlns:cc="http://creativecommons.org/ns#"
   xmlns:rdf="http://www.w3.org/1999/02/22-rdf-syntax-ns#"
   xmlns:svg="http://www.w3.org/2000/svg"
   xmlns="http://www.w3.org/2000/svg"
   xmlns:sodipodi="http://sodipodi.sourceforge.net/DTD/sodipodi-0.dtd"
   xmlns:inkscape="http://www.inkscape.org/namespaces/inkscape"
   sodipodi:docname="d_10.svg"
   inkscape:version="1.0.2-2 (e86c870879, 2021-01-15)"
   id="svg8"
   version="1.1"
   viewBox="0 0 64 89"
   height="89mm"
   width="64mm">
  <defs
     id="defs2">
    <rect
       id="rect19"
       height="17.639789"
       width="26.459683"
       y="5.7462948"
       x="2.9399648" />
    <rect
       x="2.9399648"
       y="5.7462948"
       width="26.459683"
       height="17.639789"
       id="rect63" />
    <rect
       id="rect83"
       height="17.639789"
       width="26.459683"
       y="5.7462948"
       x="2.9399648" />
    <rect
       x="2.9399648"
       y="5.7462948"
       width="26.459683"
       height="17.639789"
       id="rect103" />
    <rect
       id="rect123"
       height="17.639789"
       width="26.459683"
       y="5.7462948"
       x="2.9399648" />
    <rect
       x="2.9399648"
       y="5.7462948"
       width="26.459683"
       height="17.639789"
       id="rect143" />
    <rect
       id="rect163"
       height="17.639789"
       width="26.459683"
       y="5.7462948"
       x="2.9399648" />
    <rect
       x="2.9399648"
       y="5.7462948"
       width="26.459683"
       height="17.639789"
       id="rect183" />
    <rect
       id="rect203"
       height="17.639789"
       width="26.459683"
       y="5.7462948"
       x="2.9399648" />
    <rect
       x="2.9399648"
       y="5.7462948"
       width="26.459683"
       height="17.639789"
       id="rect223" />
    <rect
       x="2.9399648"
       y="5.7462948"
       width="26.459683"
       height="17.639789"
       id="rect239" />
    <rect
       id="rect255"
       height="17.639789"
       width="26.459683"
       y="5.7462948"
       x="2.9399648" />
    <rect
       x="2.9399648"
       y="5.7462948"
       width="26.459683"
       height="17.639789"
       id="rect271" />
    <rect
       id="rect287"
       height="17.639789"
       width="26.459683"
       y="5.7462948"
       x="2.9399648" />
  </defs>
  <sodipodi:namedview
     inkscape:window-maximized="1"
     inkscape:window-y="-8"
     inkscape:window-x="1912"
     inkscape:window-height="1027"
     inkscape:window-width="1920"
     borderlayer="false"
     lock-margins="true"
     showgrid="false"
     inkscape:document-rotation="0"
     inkscape:current-layer="layer5"
     inkscape:document-units="mm"
     inkscape:cy="190.469"
     inkscape:cx="130.049"
     inkscape:zoom="1.4"
     inkscape:pageshadow="2"
     inkscape:pageopacity="0.0"
     borderopacity="1.0"
     bordercolor="#666666"
     pagecolor="#ffffff"
     id="base"
     inkscape:snap-nodes="false" />
  <metadata
     id="metadata5">
    <rdf:RDF>
      <cc:Work
         rdf:about="">
        <dc:format>image/svg+xml</dc:format>
        <dc:type
           rdf:resource="http://purl.org/dc/dcmitype/StillImage" />
        <dc:title />
      </cc:Work>
    </rdf:RDF>
  </metadata>
  <g
     style="display:inline"
     inkscape:label="Letter"
     id="layer3"
     inkscape:groupmode="layer"
     sodipodi:insensitive="true">
    <g
       style="display:inline"
       inkscape:label="Base Colour (ALWAYS)"
       id="layer5"
       inkscape:groupmode="layer"
       sodipodi:insensitive="true">
      <rect
         style="display:inline;mix-blend-mode:multiply;fill:#ffffff;stroke:#ffffff;stroke-width:0.258351"
         id="rect418-4"
         width="62.3742"
         height="87.0686"
         x="1.11929"
         y="0.968945" />
    </g>
    <g
       style="display:inline;opacity:1"
       inkscape:groupmode="layer"
       id="g237"
       inkscape:label="Ten"
       sodipodi:insensitive="true">
      <text
         xml:space="preserve"
         id="text227"
         style="font-size:16.9333px;line-height:1.25;font-family:sans-serif;word-spacing:0px;white-space:pre;shape-inside:url(#rect239);fill:#000000;" />
      <g
         aria-label="10"
         id="text231"
         style="font-size:16.9333px;line-height:1.25;font-family:sans-serif;letter-spacing:-3.70417px;word-spacing:0px;stroke-width:0.264583">
        <path
           d="M 1.63543,12.8027 H 4.36394 V 3.38521 L 1.39565,3.98052 V 2.45917 L 4.3474,1.86386 H 6.01758 V 12.8027 h 2.72851 v 1.4056 H 1.63543 Z"
           style="font-size:16.9333px;stroke-width:0.264583"
           id="path214" />
        <path
           d="m 11.9872,2.96353 q -1.2898,0 -1.943,1.2733 -0.64493,1.26504 -0.64493,3.81165 0,2.53832 0.64493,3.81162 0.6532,1.2651 1.943,1.2651 1.2981,0 1.943,-1.2651 0.6532,-1.2733 0.6532,-3.81162 0,-2.54661 -0.6532,-3.81165 -0.6449,-1.2733 -1.943,-1.2733 z m 0,-1.32291 q 2.0753,0 3.1667,1.64537 1.0997,1.63711 1.0997,4.76249 0,3.11712 -1.0997,4.76252 -1.0914,1.6371 -3.1667,1.6371 -2.0753,0 -3.17497,-1.6371 Q 7.72082,11.1656 7.72082,8.04848 7.72082,4.9231 8.81223,3.28599 9.9119,1.64062 11.9872,1.64062 Z"
           style="font-size:16.9333px;stroke-width:0.264583"
           id="path216" />
      </g>
      <g
         aria-label="10"
         transform="scale(-1)"
         id="text235"
         style="font-size:16.9333px;line-height:1.25;font-family:sans-serif;letter-spacing:-3.70417px;word-spacing:0px;stroke-width:0.264583">
        <path
           d="m -62.5385,-76.1203 h 2.7285 v -9.4175 l -2.9683,0.5953 v -1.5213 l 2.9518,-0.5953 h 1.6702 v 10.9388 h 2.7285 v 1.4056 h -7.1107 z"
           style="font-size:16.9333px;stroke-width:0.264583"
           id="path219" />
        <path
           d="m -52.1867,-85.9595 q -1.2898,0 -1.943,1.2733 -0.6449,1.2651 -0.6449,3.8117 0,2.5383 0.6449,3.8116 0.6532,1.2651 1.943,1.2651 1.2981,0 1.943,-1.2651 0.6532,-1.2733 0.6532,-3.8116 0,-2.5466 -0.6532,-3.8117 -0.6449,-1.2733 -1.943,-1.2733 z m 0,-1.3229 q 2.0753,0 3.1667,1.6454 1.0997,1.6371 1.0997,4.7625 0,3.1171 -1.0997,4.7625 -1.0914,1.6371 -3.1667,1.6371 -2.0753,0 -3.175,-1.6371 -1.0914,-1.6454 -1.0914,-4.7625 0,-3.1254 1.0914,-4.7625 1.0997,-1.6454 3.175,-1.6454 z"
           style="font-size:16.9333px;stroke-width:0.264583"
           id="path221" />
      </g>
    </g>
    <g
       inkscape:groupmode="layer"
       id="g534"
       inkscape:label="Diamond (RED)"
       style="display:inline"
       sodipodi:insensitive="true">
      <g
         inkscape:groupmode="layer"
         id="g524"
         inkscape:label="Diamond Inner"
         style="display:inline"
         sodipodi:insensitive="true">
        <g
           aria-label="♦"
           id="text522"
           style="font-size:25.4px;line-height:1.25;font-family:sans-serif;word-spacing:0px;display:inline;stroke-width:0.264583">
          <path
             d="m 32.4121,34.9108 6.2383,8.0987 q 0.8558,1.0542 0.8558,1.2155 l -7.0941,9.1901 q -0.1489,-0.099 -7.119,-9.1901 0,-0.1737 1.3767,-1.8852 z"
             style="font-size:25.4px;stroke-width:0.264583"
             id="path266" />
        </g>
      </g>
      <g
         aria-label="♦"
         id="text528"
         style="font-size:16.9333px;line-height:1.25;font-family:sans-serif;word-spacing:0px;stroke-width:0.264583"
         transform="translate(-0.72953)">
        <path
           d="m 9.97148,15.7851 4.15892,5.3992 q 0.5705,0.7028 0.5705,0.8103 l -4.72942,6.1267 q -0.0992,-0.066 -4.74595,-6.1267 0,-0.1158 0.91777,-1.2568 z"
           style="stroke-width:0.264583"
           id="path269" />
      </g>
      <g
         aria-label="♦"
         transform="scale(-1)"
         id="text532"
         style="font-size:16.9333px;line-height:1.25;font-family:sans-serif;word-spacing:0px;stroke-width:0.264583">
        <path
           d="m -55.3694,-73.2968 4.1589,5.3992 q 0.5705,0.7028 0.5705,0.8103 l -4.7294,6.1267 q -0.099,-0.066 -4.7459,-6.1267 0,-0.1158 0.9177,-1.2568 z"
           style="stroke-width:0.264583"
           id="path272" />
      </g>
    </g>
    <g
       style="display:inline;mix-blend-mode:screen"
       inkscape:label="Colour (RED)"
       id="layer4"
       inkscape:groupmode="layer"
       sodipodi:insensitive="true">
      <rect
         y="1.1693"
         x="1.16931"
         height="86.294"
         width="61.9287"
         id="rect418"
         style="fill:#ff0000;stroke:none;stroke-width:0.25628" />
    </g>
  </g>
</svg>
