<?xml version="1.0" encoding="UTF-8" standalone="no"?>
<svg
   xmlns:dc="http://purl.org/dc/elements/1.1/"
   xmlns:cc="http://creativecommons.org/ns#"
   xmlns:rdf="http://www.w3.org/1999/02/22-rdf-syntax-ns#"
   xmlns:svg="http://www.w3.org/2000/svg"
   xmlns="http://www.w3.org/2000/svg"
   xmlns:sodipodi="http://sodipodi.sourceforge.net/DTD/sodipodi-0.dtd"
   xmlns:inkscape="http://www.inkscape.org/namespaces/inkscape"
   sodipodi:docname="d_5.svg"
   inkscape:version="1.0.2-2 (e86c870879, 2021-01-15)"
   id="svg8"
   version="1.1"
   viewBox="0 0 64 89"
   height="89mm"
   width="64mm">
  <defs
     id="defs2">
    <rect
       id="rect19"
       height="17.639789"
       width="26.459683"
       y="5.7462948"
       x="2.9399648" />
    <rect
       x="2.9399648"
       y="5.7462948"
       width="26.459683"
       height="17.639789"
       id="rect63" />
    <rect
       id="rect83"
       height="17.639789"
       width="26.459683"
       y="5.7462948"
       x="2.9399648" />
    <rect
       x="2.9399648"
       y="5.7462948"
       width="26.459683"
       height="17.639789"
       id="rect103" />
    <rect
       id="rect123"
       height="17.639789"
       width="26.459683"
       y="5.7462948"
       x="2.9399648" />
    <rect
       x="2.9399648"
       y="5.7462948"
       width="26.459683"
       height="17.639789"
       id="rect143" />
    <rect
       id="rect163"
       height="17.639789"
       width="26.459683"
       y="5.7462948"
       x="2.9399648" />
    <rect
       x="2.9399648"
       y="5.7462948"
       width="26.459683"
       height="17.639789"
       id="rect183" />
    <rect
       id="rect203"
       height="17.639789"
       width="26.459683"
       y="5.7462948"
       x="2.9399648" />
    <rect
       x="2.9399648"
       y="5.7462948"
       width="26.459683"
       height="17.639789"
       id="rect223" />
    <rect
       x="2.9399648"
       y="5.7462948"
       width="26.459683"
       height="17.639789"
       id="rect239" />
    <rect
       id="rect255"
       height="17.639789"
       width="26.459683"
       y="5.7462948"
       x="2.9399648" />
    <rect
       x="2.9399648"
       y="5.7462948"
       width="26.459683"
       height="17.639789"
       id="rect271" />
    <rect
       id="rect287"
       height="17.639789"
       width="26.459683"
       y="5.7462948"
       x="2.9399648" />
  </defs>
  <sodipodi:namedview
     inkscape:window-maximized="1"
     inkscape:window-y="-8"
     inkscape:window-x="1912"
     inkscape:window-height="1027"
     inkscape:window-width="1920"
     borderlayer="false"
     lock-margins="true"
     showgrid="false"
     inkscape:document-rotation="0"
     inkscape:current-layer="layer5"
     inkscape:document-units="mm"
     inkscape:cy="190.469"
     inkscape:cx="130.049"
     inkscape:zoom="1.4"
     inkscape:pageshadow="2"
     inkscape:pageopacity="0.0"
     borderopacity="1.0"
     bordercolor="#666666"
     pagecolor="#ffffff"
     id="base"
     inkscape:snap-nodes="false" />
  <metadata
     id="metadata5">
    <rdf:RDF>
      <cc:Work
         rdf:about="">
        <dc:format>image/svg+xml</dc:format>
        <dc:type
           rdf:resource="http://purl.org/dc/dcmitype/StillImage" />
        <dc:title />
      </cc:Work>
    </rdf:RDF>
  </metadata>
  <g
     style="display:inline"
     inkscape:label="Letter"
     id="layer3"
     inkscape:groupmode="layer">
    <g
       style="display:inline"
       inkscape:label="Base Colour (ALWAYS)"
       id="layer5"
       inkscape:groupmode="layer"
       sodipodi:insensitive="true">
      <rect
         style="display:inline;mix-blend-mode:multiply;fill:#ffffff;stroke:#ffffff;stroke-width:0.258351"
         id="rect418-4"
         width="62.3742"
         height="87.0686"
         x="1.11929"
         y="0.968945" />
    </g>
    <g
       inkscape:label="Five"
       id="g121"
       inkscape:groupmode="layer"
       style="display:inline"
       sodipodi:insensitive="true">
      <text
         style="font-size:16.9333px;line-height:1.25;font-family:sans-serif;word-spacing:0px;white-space:pre;shape-inside:url(#rect123);fill:#000000;"
         id="text111"
         xml:space="preserve" />
      <g
         aria-label="5"
         id="text115"
         style="font-size:16.9333px;line-height:1.25;font-family:sans-serif;word-spacing:0px;stroke-width:0.264583"
         transform="translate(0.75815)">
        <path
           d="M 5.06675,1.86386 H 11.6234 V 3.26945 H 6.59636 v 3.02617 q 0.36381,-0.12402 0.72761,-0.1819 0.3638,-0.0661 0.7276,-0.0661 2.06703,0 3.27423,1.13275 1.2071,1.13274 1.2071,3.06743 0,1.9927 -1.2402,3.1006 -1.2402,1.0997 -3.49744,1.0997 -0.77722,0 -1.5875,-0.1323 -0.80202,-0.1323 -1.66191,-0.3969 v -1.6784 q 0.74414,0.4051 1.53789,0.6035 0.79374,0.1985 1.67844,0.1985 1.4304,0 2.26552,-0.7524 0.8351,-0.7524 0.8351,-2.0423 0,-1.28977 -0.8351,-2.04217 Q 9.19258,7.45317 7.76218,7.45317 7.09246,7.45317 6.42273,7.602 5.76127,7.75083 5.06675,8.06502 Z"
           style="stroke-width:0.264583"
           id="path178" />
      </g>
      <g
         aria-label="5"
         transform="rotate(180,-0.1645,0)"
         id="text119"
         style="font-size:16.9333px;line-height:1.25;font-family:sans-serif;word-spacing:0px;stroke-width:0.264583">
        <path
           d="m -59.1072,-87.0591 h 6.5567 v 1.4056 h -5.0271 v 3.0261 q 0.3638,-0.124 0.7276,-0.1819 0.3638,-0.066 0.7276,-0.066 2.0671,0 3.2742,1.1327 1.2072,1.1328 1.2072,3.0675 0,1.9927 -1.2403,3.1006 -1.2402,1.0997 -3.4974,1.0997 -0.7772,0 -1.5875,-0.1323 -0.802,-0.1323 -1.6619,-0.3969 v -1.6784 q 0.7441,0.4051 1.5379,0.6035 0.7937,0.1985 1.6784,0.1985 1.4304,0 2.2655,-0.7524 0.8351,-0.7524 0.8351,-2.0423 0,-1.2898 -0.8351,-2.0422 -0.8351,-0.7524 -2.2655,-0.7524 -0.6697,0 -1.3394,0.1488 -0.6615,0.1488 -1.356,0.463 z"
           style="stroke-width:0.264583"
           id="path181" />
      </g>
    </g>
    <g
       inkscape:groupmode="layer"
       id="g534"
       inkscape:label="Diamond (RED)"
       style="display:inline"
       sodipodi:insensitive="true">
      <g
         inkscape:groupmode="layer"
         id="g524"
         inkscape:label="Diamond Inner"
         style="display:inline"
         sodipodi:insensitive="true">
        <g
           aria-label="♦"
           id="text522"
           style="font-size:25.4px;line-height:1.25;font-family:sans-serif;word-spacing:0px;display:inline;stroke-width:0.264583">
          <path
             d="m 32.4121,34.9108 6.2383,8.0987 q 0.8558,1.0542 0.8558,1.2155 l -7.0941,9.1901 q -0.1489,-0.099 -7.119,-9.1901 0,-0.1737 1.3767,-1.8852 z"
             style="font-size:25.4px;stroke-width:0.264583"
             id="path266" />
        </g>
      </g>
      <g
         aria-label="♦"
         id="text528"
         style="font-size:16.9333px;line-height:1.25;font-family:sans-serif;word-spacing:0px;stroke-width:0.264583"
         transform="translate(-0.72953)">
        <path
           d="m 9.97148,15.7851 4.15892,5.3992 q 0.5705,0.7028 0.5705,0.8103 l -4.72942,6.1267 q -0.0992,-0.066 -4.74595,-6.1267 0,-0.1158 0.91777,-1.2568 z"
           style="stroke-width:0.264583"
           id="path269" />
      </g>
      <g
         aria-label="♦"
         transform="scale(-1)"
         id="text532"
         style="font-size:16.9333px;line-height:1.25;font-family:sans-serif;word-spacing:0px;stroke-width:0.264583">
        <path
           d="m -55.3694,-73.2968 4.1589,5.3992 q 0.5705,0.7028 0.5705,0.8103 l -4.7294,6.1267 q -0.099,-0.066 -4.7459,-6.1267 0,-0.1158 0.9177,-1.2568 z"
           style="stroke-width:0.264583"
           id="path272" />
      </g>
    </g>
    <g
       style="display:inline;mix-blend-mode:screen"
       inkscape:label="Colour (RED)"
       id="layer4"
       inkscape:groupmode="layer"
       sodipodi:insensitive="true">
      <rect
         y="1.1693"
         x="1.16931"
         height="86.294"
         width="61.9287"
         id="rect418"
         style="fill:#ff0000;stroke:none;stroke-width:0.25628" />
    </g>
  </g>
</svg>
