<?xml version="1.0" encoding="UTF-8" standalone="no"?>
<svg
   xmlns:dc="http://purl.org/dc/elements/1.1/"
   xmlns:cc="http://creativecommons.org/ns#"
   xmlns:rdf="http://www.w3.org/1999/02/22-rdf-syntax-ns#"
   xmlns:svg="http://www.w3.org/2000/svg"
   xmlns="http://www.w3.org/2000/svg"
   xmlns:sodipodi="http://sodipodi.sourceforge.net/DTD/sodipodi-0.dtd"
   xmlns:inkscape="http://www.inkscape.org/namespaces/inkscape"
   sodipodi:docname="d_6.svg"
   inkscape:version="1.0.2-2 (e86c870879, 2021-01-15)"
   id="svg8"
   version="1.1"
   viewBox="0 0 64 89"
   height="89mm"
   width="64mm">
  <defs
     id="defs2">
    <rect
       id="rect19"
       height="17.639789"
       width="26.459683"
       y="5.7462948"
       x="2.9399648" />
    <rect
       x="2.9399648"
       y="5.7462948"
       width="26.459683"
       height="17.639789"
       id="rect63" />
    <rect
       id="rect83"
       height="17.639789"
       width="26.459683"
       y="5.7462948"
       x="2.9399648" />
    <rect
       x="2.9399648"
       y="5.7462948"
       width="26.459683"
       height="17.639789"
       id="rect103" />
    <rect
       id="rect123"
       height="17.639789"
       width="26.459683"
       y="5.7462948"
       x="2.9399648" />
    <rect
       x="2.9399648"
       y="5.7462948"
       width="26.459683"
       height="17.639789"
       id="rect143" />
    <rect
       id="rect163"
       height="17.639789"
       width="26.459683"
       y="5.7462948"
       x="2.9399648" />
    <rect
       x="2.9399648"
       y="5.7462948"
       width="26.459683"
       height="17.639789"
       id="rect183" />
    <rect
       id="rect203"
       height="17.639789"
       width="26.459683"
       y="5.7462948"
       x="2.9399648" />
    <rect
       x="2.9399648"
       y="5.7462948"
       width="26.459683"
       height="17.639789"
       id="rect223" />
    <rect
       x="2.9399648"
       y="5.7462948"
       width="26.459683"
       height="17.639789"
       id="rect239" />
    <rect
       id="rect255"
       height="17.639789"
       width="26.459683"
       y="5.7462948"
       x="2.9399648" />
    <rect
       x="2.9399648"
       y="5.7462948"
       width="26.459683"
       height="17.639789"
       id="rect271" />
    <rect
       id="rect287"
       height="17.639789"
       width="26.459683"
       y="5.7462948"
       x="2.9399648" />
  </defs>
  <sodipodi:namedview
     inkscape:window-maximized="1"
     inkscape:window-y="-8"
     inkscape:window-x="1912"
     inkscape:window-height="1027"
     inkscape:window-width="1920"
     borderlayer="false"
     lock-margins="true"
     showgrid="false"
     inkscape:document-rotation="0"
     inkscape:current-layer="layer5"
     inkscape:document-units="mm"
     inkscape:cy="190.469"
     inkscape:cx="130.049"
     inkscape:zoom="1.4"
     inkscape:pageshadow="2"
     inkscape:pageopacity="0.0"
     borderopacity="1.0"
     bordercolor="#666666"
     pagecolor="#ffffff"
     id="base"
     inkscape:snap-nodes="false" />
  <metadata
     id="metadata5">
    <rdf:RDF>
      <cc:Work
         rdf:about="">
        <dc:format>image/svg+xml</dc:format>
        <dc:type
           rdf:resource="http://purl.org/dc/dcmitype/StillImage" />
        <dc:title />
      </cc:Work>
    </rdf:RDF>
  </metadata>
  <g
     style="display:inline"
     inkscape:label="Letter"
     id="layer3"
     inkscape:groupmode="layer"
     sodipodi:insensitive="true">
    <g
       style="display:inline"
       inkscape:label="Base Colour (ALWAYS)"
       id="layer5"
       inkscape:groupmode="layer"
       sodipodi:insensitive="true">
      <rect
         style="display:inline;mix-blend-mode:multiply;fill:#ffffff;stroke:#ffffff;stroke-width:0.258351"
         id="rect418-4"
         width="62.3742"
         height="87.0686"
         x="1.11929"
         y="0.968945" />
    </g>
    <g
       style="display:inline"
       inkscape:groupmode="layer"
       id="g141"
       inkscape:label="Six"
       sodipodi:insensitive="true">
      <text
         xml:space="preserve"
         id="text131"
         style="font-size:16.9333px;line-height:1.25;font-family:sans-serif;word-spacing:0px;white-space:pre;shape-inside:url(#rect143);fill:#000000;" />
      <g
         aria-label="6"
         id="text135"
         style="font-size:16.9333px;line-height:1.25;font-family:sans-serif;word-spacing:0px;stroke-width:0.264583"
         transform="translate(1.38735)">
        <path
           d="m 8.29961,7.37049 q -1.12448,0 -1.78593,0.76894 -0.65319,0.76895 -0.65319,2.10837 0,1.3312 0.65319,2.1084 0.66145,0.769 1.78593,0.769 1.12448,0 1.77769,-0.769 0.6614,-0.7772 0.6614,-2.1084 0,-1.33942 -0.6614,-2.10837 Q 9.42409,7.37049 8.29961,7.37049 Z M 11.6152,2.13671 V 3.65806 Q 10.9868,3.3604 10.3419,3.20331 9.70521,3.04621 9.07682,3.04621 7.42318,3.04621 6.54675,4.16242 5.67859,5.27863 5.55457,7.53585 6.04239,6.81652 6.77826,6.43618 7.51413,6.04757 8.39883,6.04757 q 1.86037,0 2.93517,1.13275 1.0832,1.12448 1.0832,3.06748 0,1.9017 -1.1245,3.051 -1.1245,1.1493 -2.99309,1.1493 -2.14147,0 -3.27421,-1.6371 -1.13275,-1.6454 -1.13275,-4.76252 0,-2.92695 1.38906,-4.66327 1.38906,-1.74459 3.72897,-1.74459 0.62838,0 1.26502,0.12402 0.6449,0.12402 1.3395,0.37207 z"
           style="stroke-width:0.264583"
           id="path172" />
      </g>
      <g
         aria-label="6"
         transform="rotate(180,-0.31435,0)"
         id="text139"
         style="font-size:16.9333px;line-height:1.25;font-family:sans-serif;word-spacing:0px;stroke-width:0.264583">
        <path
           d="m -55.8743,-81.5525 q -1.1245,0 -1.7859,0.7689 -0.6532,0.769 -0.6532,2.1084 0,1.3312 0.6532,2.1084 0.6614,0.769 1.7859,0.769 1.1245,0 1.7777,-0.769 0.6614,-0.7772 0.6614,-2.1084 0,-1.3394 -0.6614,-2.1084 -0.6532,-0.7689 -1.7777,-0.7689 z m 3.3156,-5.2338 v 1.5214 q -0.6284,-0.2977 -1.2733,-0.4548 -0.6367,-0.1571 -1.2651,-0.1571 -1.6536,0 -2.53,1.1162 -0.8682,1.1162 -0.9922,3.3735 0.4878,-0.7194 1.2237,-1.0997 0.7358,-0.3886 1.6205,-0.3886 1.8604,0 2.9352,1.1327 1.0832,1.1245 1.0832,3.0675 0,1.9017 -1.1245,3.051 -1.1245,1.1493 -2.9931,1.1493 -2.1415,0 -3.2742,-1.6371 -1.1327,-1.6454 -1.1327,-4.7625 0,-2.927 1.389,-4.6633 1.3891,-1.7446 3.729,-1.7446 0.6284,0 1.265,0.124 0.6449,0.1241 1.3395,0.3721 z"
           style="stroke-width:0.264583"
           id="path175" />
      </g>
    </g>
    <g
       inkscape:groupmode="layer"
       id="g534"
       inkscape:label="Diamond (RED)"
       style="display:inline"
       sodipodi:insensitive="true">
      <g
         inkscape:groupmode="layer"
         id="g524"
         inkscape:label="Diamond Inner"
         style="display:inline"
         sodipodi:insensitive="true">
        <g
           aria-label="♦"
           id="text522"
           style="font-size:25.4px;line-height:1.25;font-family:sans-serif;word-spacing:0px;display:inline;stroke-width:0.264583">
          <path
             d="m 32.4121,34.9108 6.2383,8.0987 q 0.8558,1.0542 0.8558,1.2155 l -7.0941,9.1901 q -0.1489,-0.099 -7.119,-9.1901 0,-0.1737 1.3767,-1.8852 z"
             style="font-size:25.4px;stroke-width:0.264583"
             id="path266" />
        </g>
      </g>
      <g
         aria-label="♦"
         id="text528"
         style="font-size:16.9333px;line-height:1.25;font-family:sans-serif;word-spacing:0px;stroke-width:0.264583"
         transform="translate(-0.72953)">
        <path
           d="m 9.97148,15.7851 4.15892,5.3992 q 0.5705,0.7028 0.5705,0.8103 l -4.72942,6.1267 q -0.0992,-0.066 -4.74595,-6.1267 0,-0.1158 0.91777,-1.2568 z"
           style="stroke-width:0.264583"
           id="path269" />
      </g>
      <g
         aria-label="♦"
         transform="scale(-1)"
         id="text532"
         style="font-size:16.9333px;line-height:1.25;font-family:sans-serif;word-spacing:0px;stroke-width:0.264583">
        <path
           d="m -55.3694,-73.2968 4.1589,5.3992 q 0.5705,0.7028 0.5705,0.8103 l -4.7294,6.1267 q -0.099,-0.066 -4.7459,-6.1267 0,-0.1158 0.9177,-1.2568 z"
           style="stroke-width:0.264583"
           id="path272" />
      </g>
    </g>
    <g
       style="display:inline;mix-blend-mode:screen"
       inkscape:label="Colour (RED)"
       id="layer4"
       inkscape:groupmode="layer"
       sodipodi:insensitive="true">
      <rect
         y="1.1693"
         x="1.16931"
         height="86.294"
         width="61.9287"
         id="rect418"
         style="fill:#ff0000;stroke:none;stroke-width:0.25628" />
    </g>
  </g>
</svg>
