<?xml version="1.0" encoding="UTF-8" standalone="no"?>
<svg
   xmlns:dc="http://purl.org/dc/elements/1.1/"
   xmlns:cc="http://creativecommons.org/ns#"
   xmlns:rdf="http://www.w3.org/1999/02/22-rdf-syntax-ns#"
   xmlns:svg="http://www.w3.org/2000/svg"
   xmlns="http://www.w3.org/2000/svg"
   xmlns:sodipodi="http://sodipodi.sourceforge.net/DTD/sodipodi-0.dtd"
   xmlns:inkscape="http://www.inkscape.org/namespaces/inkscape"
   sodipodi:docname="d_q.svg"
   inkscape:version="1.0.2-2 (e86c870879, 2021-01-15)"
   id="svg8"
   version="1.1"
   viewBox="0 0 64 89"
   height="89mm"
   width="64mm">
  <defs
     id="defs2">
    <rect
       id="rect19"
       height="17.639789"
       width="26.459683"
       y="5.7462948"
       x="2.9399648" />
    <rect
       x="2.9399648"
       y="5.7462948"
       width="26.459683"
       height="17.639789"
       id="rect63" />
    <rect
       id="rect83"
       height="17.639789"
       width="26.459683"
       y="5.7462948"
       x="2.9399648" />
    <rect
       x="2.9399648"
       y="5.7462948"
       width="26.459683"
       height="17.639789"
       id="rect103" />
    <rect
       id="rect123"
       height="17.639789"
       width="26.459683"
       y="5.7462948"
       x="2.9399648" />
    <rect
       x="2.9399648"
       y="5.7462948"
       width="26.459683"
       height="17.639789"
       id="rect143" />
    <rect
       id="rect163"
       height="17.639789"
       width="26.459683"
       y="5.7462948"
       x="2.9399648" />
    <rect
       x="2.9399648"
       y="5.7462948"
       width="26.459683"
       height="17.639789"
       id="rect183" />
    <rect
       id="rect203"
       height="17.639789"
       width="26.459683"
       y="5.7462948"
       x="2.9399648" />
    <rect
       x="2.9399648"
       y="5.7462948"
       width="26.459683"
       height="17.639789"
       id="rect223" />
    <rect
       x="2.9399648"
       y="5.7462948"
       width="26.459683"
       height="17.639789"
       id="rect239" />
    <rect
       id="rect255"
       height="17.639789"
       width="26.459683"
       y="5.7462948"
       x="2.9399648" />
    <rect
       x="2.9399648"
       y="5.7462948"
       width="26.459683"
       height="17.639789"
       id="rect271" />
    <rect
       id="rect287"
       height="17.639789"
       width="26.459683"
       y="5.7462948"
       x="2.9399648" />
  </defs>
  <sodipodi:namedview
     inkscape:window-maximized="1"
     inkscape:window-y="-8"
     inkscape:window-x="1912"
     inkscape:window-height="1027"
     inkscape:window-width="1920"
     borderlayer="false"
     lock-margins="true"
     showgrid="false"
     inkscape:document-rotation="0"
     inkscape:current-layer="layer5"
     inkscape:document-units="mm"
     inkscape:cy="190.469"
     inkscape:cx="130.049"
     inkscape:zoom="1.4"
     inkscape:pageshadow="2"
     inkscape:pageopacity="0.0"
     borderopacity="1.0"
     bordercolor="#666666"
     pagecolor="#ffffff"
     id="base"
     inkscape:snap-nodes="false" />
  <metadata
     id="metadata5">
    <rdf:RDF>
      <cc:Work
         rdf:about="">
        <dc:format>image/svg+xml</dc:format>
        <dc:type
           rdf:resource="http://purl.org/dc/dcmitype/StillImage" />
        <dc:title />
      </cc:Work>
    </rdf:RDF>
  </metadata>
  <g
     style="display:inline"
     inkscape:label="Letter"
     id="layer3"
     inkscape:groupmode="layer">
    <g
       style="display:inline"
       inkscape:label="Base Colour (ALWAYS)"
       id="layer5"
       inkscape:groupmode="layer"
       sodipodi:insensitive="true">
      <rect
         style="display:inline;mix-blend-mode:multiply;fill:#ffffff;stroke:#ffffff;stroke-width:0.258351"
         id="rect418-4"
         width="62.3742"
         height="87.0686"
         x="1.11929"
         y="0.968945" />
    </g>
    <g
       style="display:inline"
       inkscape:groupmode="layer"
       id="g269"
       inkscape:label="Queen"
       sodipodi:insensitive="true">
      <text
         xml:space="preserve"
         id="text259"
         style="font-size:16.9333px;line-height:1.25;font-family:sans-serif;word-spacing:0px;white-space:pre;shape-inside:url(#rect271);fill:#000000;" />
      <g
         aria-label="Q"
         id="text263"
         style="font-size:14.7628px;line-height:1.25;font-family:sans-serif;word-spacing:0px;stroke-width:0.230669"
         transform="translate(-0.30018)">
        <path
           d="m 9.76439,2.82281 q -1.58585,0 -2.52294,1.18218 -0.92989,1.18218 -0.92989,3.22215 0,2.03277 0.92989,3.21496 0.93709,1.1822 2.52294,1.1822 1.58581,0 2.50851,-1.1822 0.9299,-1.18219 0.9299,-3.21496 0,-2.03997 -0.9299,-3.22215 Q 11.3502,2.82281 9.76439,2.82281 Z m 2.04001,9.57999 1.9174,2.0976 h -1.7589 l -1.593,-1.7228 q -0.2379,0.014 -0.3676,0.022 -0.12258,0.01 -0.23791,0.01 -2.27065,0 -3.63304,-1.5137 -1.35517,-1.52099 -1.35517,-4.06556 0,-2.55177 1.35517,-4.06553 1.36239,-1.52098 3.63304,-1.52098 2.26341,0 3.61861,1.52098 1.3552,1.51376 1.3552,4.06553 0,1.87419 -0.7569,3.20776 -0.7497,1.3335 -2.1769,1.9679 z"
           style="stroke-width:0.230669"
           id="path251" />
      </g>
      <g
         aria-label="Q"
         transform="rotate(180,0.0502,0)"
         id="text267"
         style="font-size:14.6553px;line-height:1.25;font-family:sans-serif;word-spacing:0px;stroke-width:0.228989">
        <path
           d="m -55.3152,-86.1561 q -1.5743,0 -2.5046,1.1736 -0.9231,1.1735 -0.9231,3.1987 0,2.0179 0.9231,3.1915 0.9303,1.1736 2.5046,1.1736 1.5743,0 2.4903,-1.1736 0.9231,-1.1736 0.9231,-3.1915 0,-2.0252 -0.9231,-3.1987 -0.916,-1.1736 -2.4903,-1.1736 z m 2.0251,9.5102 1.9035,2.0824 h -1.746 l -1.5815,-1.7103 q -0.2361,0.014 -0.3649,0.021 -0.1217,0.01 -0.2362,0.01 -2.2541,0 -3.6066,-1.5027 -1.3453,-1.5099 -1.3453,-4.0359 0,-2.5332 1.3453,-4.036 1.3525,-1.5099 3.6066,-1.5099 2.247,0 3.5923,1.5099 1.3453,1.5028 1.3453,4.036 0,1.8605 -0.7514,3.1843 -0.7442,1.3239 -2.1611,1.9536 z"
           style="stroke-width:0.228989"
           id="path254" />
      </g>
    </g>
    <g
       inkscape:groupmode="layer"
       id="g534"
       inkscape:label="Diamond (RED)"
       style="display:inline"
       sodipodi:insensitive="true">
      <g
         inkscape:groupmode="layer"
         id="g524"
         inkscape:label="Diamond Inner"
         style="display:inline"
         sodipodi:insensitive="true">
        <g
           aria-label="♦"
           id="text522"
           style="font-size:25.4px;line-height:1.25;font-family:sans-serif;word-spacing:0px;display:inline;stroke-width:0.264583">
          <path
             d="m 32.4121,34.9108 6.2383,8.0987 q 0.8558,1.0542 0.8558,1.2155 l -7.0941,9.1901 q -0.1489,-0.099 -7.119,-9.1901 0,-0.1737 1.3767,-1.8852 z"
             style="font-size:25.4px;stroke-width:0.264583"
             id="path266" />
        </g>
      </g>
      <g
         aria-label="♦"
         id="text528"
         style="font-size:16.9333px;line-height:1.25;font-family:sans-serif;word-spacing:0px;stroke-width:0.264583"
         transform="translate(-0.72953)">
        <path
           d="m 9.97148,15.7851 4.15892,5.3992 q 0.5705,0.7028 0.5705,0.8103 l -4.72942,6.1267 q -0.0992,-0.066 -4.74595,-6.1267 0,-0.1158 0.91777,-1.2568 z"
           style="stroke-width:0.264583"
           id="path269" />
      </g>
      <g
         aria-label="♦"
         transform="scale(-1)"
         id="text532"
         style="font-size:16.9333px;line-height:1.25;font-family:sans-serif;word-spacing:0px;stroke-width:0.264583">
        <path
           d="m -55.3694,-73.2968 4.1589,5.3992 q 0.5705,0.7028 0.5705,0.8103 l -4.7294,6.1267 q -0.099,-0.066 -4.7459,-6.1267 0,-0.1158 0.9177,-1.2568 z"
           style="stroke-width:0.264583"
           id="path272" />
      </g>
    </g>
    <g
       style="display:inline;mix-blend-mode:screen"
       inkscape:label="Colour (RED)"
       id="layer4"
       inkscape:groupmode="layer"
       sodipodi:insensitive="true">
      <rect
         y="1.1693"
         x="1.16931"
         height="86.294"
         width="61.9287"
         id="rect418"
         style="fill:#ff0000;stroke:none;stroke-width:0.25628" />
    </g>
  </g>
</svg>
